<svg xmlns="http://www.w3.org/2000/svg" width="314.652" height="273.939" viewBox="0 0 314.652 273.939"><defs><style>.a{fill:rgba(136,135,131,0.28);}.b{fill:rgba(150,150,150,0.16);}.c{fill:#a8a686;stroke:#f2e871;stroke-width:4px;}</style></defs><g transform="translate(-1012.992 -1478.437)"><path class="a" d="M1480.888,112.433l53.156-3.555-32.719,66.97,25.3-12.231-47.164,96.108,10.212-62.855-23.648,6.391,14.864-90.827" transform="translate(-299.712 2214.143) rotate(-31)"/><path class="b" d="M1481.457,112l55.191-3.119-33.971,58.754,26.267-10.73-48.969,84.317,10.6-55.144-24.553,5.607L1481.457,112" transform="matrix(0.358, 0.934, -0.934, 0.358, 823.729, 231.347)"/><path class="a" d="M1489.716,114.131l84.73-5.254-52.153,98.964,40.326-18.074-75.178,142.021,16.278-92.884-37.694,9.444,23.692-134.219" transform="matrix(0.848, 0.53, -0.53, 0.848, 50.135, 609.229)"/><path class="c" d="M1483.794,112.818l63.552-3.941-39.117,74.228,30.246-13.556-56.387,106.523L1494.3,206.4l-28.272,7.084,17.77-100.671" transform="matrix(0.891, 0.454, -0.454, 0.891, -78.197, 761.838)"/><path class="c" d="M1475.7,110.834l34.619-1.956-21.309,36.854L1505.491,139l-30.716,52.888,6.651-34.59-15.4,3.517,9.68-49.983" transform="matrix(0.358, 0.934, -0.934, 0.358, 777.676, 249.025)"/><path class="c" d="M1474.371,110.874l29.851-2-18.374,37.609,14.208-6.869-26.486,53.972,5.735-35.3-13.28,3.589,8.347-51.006" transform="translate(-265.65 2270.832) rotate(-31)"/></g></svg>