<svg xmlns="http://www.w3.org/2000/svg" xmlns:xlink="http://www.w3.org/1999/xlink" width="344.956" height="276.581" viewBox="0 0 344.956 276.581">
  <defs>
    <linearGradient id="linear-gradient" x1="7991.716" y1="1" x2="7991.716" gradientUnits="objectBoundingBox">
      <stop offset="0" stop-color="gray" stop-opacity="0.251"/>
      <stop offset="0.54" stop-color="gray" stop-opacity="0.122"/>
      <stop offset="1" stop-color="gray" stop-opacity="0.102"/>
    </linearGradient>
    <linearGradient id="linear-gradient-2" x1="3.146" y1="1" x2="3.146" y2="0" xlink:href="#linear-gradient"/>
  </defs>
  <g id="Group_150" data-name="Group 150" transform="translate(0.033 -0.031)">
    <path id="Path_185" data-name="Path 185" d="M843.009,520.928a3.9,3.9,0,0,0-5.091.473,3.99,3.99,0,0,0,.158,5.56l4.868,4.84a.81.81,0,0,0,1.151,0l4.854-4.872a3.99,3.99,0,0,0,.129-5.56,3.915,3.915,0,0,0-5.1-.445A.817.817,0,0,1,843.009,520.928Z" transform="translate(-579.498 -356.68)" fill="#e3f1f2"/>
    <path id="Path_186" data-name="Path 186" d="M251.009,212.928a3.9,3.9,0,0,0-5.091.473,3.99,3.99,0,0,0,.158,5.56l4.868,4.84a.81.81,0,0,0,1.151,0l4.854-4.872a3.99,3.99,0,0,0,.129-5.56,3.915,3.915,0,0,0-5.1-.445.817.817,0,0,1-.972,0Z" transform="translate(-199.729 -159.097)" fill="#e3f1f2"/>
    <path id="Path_187" data-name="Path 187" d="M125.009,487.928a3.9,3.9,0,0,0-5.091.473,3.99,3.99,0,0,0,.158,5.56l4.868,4.84a.81.81,0,0,0,1.151,0l4.854-4.872a3.99,3.99,0,0,0,.129-5.56,3.915,3.915,0,0,0-5.1-.445.817.817,0,0,1-.972,0Z" transform="translate(-118.9 -335.51)" fill="#e3f1f2"/>
    <path id="Path_188" data-name="Path 188" d="M842.009,185.928a3.9,3.9,0,0,0-5.091.473,3.99,3.99,0,0,0,.158,5.56l4.868,4.84a.81.81,0,0,0,1.151,0l4.854-4.872a3.99,3.99,0,0,0,.129-5.56,3.915,3.915,0,0,0-5.1-.445.817.817,0,0,1-.972,0Z" transform="translate(-578.857 -141.777)" fill="#e3f1f2"/>
    <rect id="Rectangle_168" data-name="Rectangle 168" width="1.075" height="6.094" transform="translate(233.361 26.52)" fill="#3ad29f"/>
    <rect id="Rectangle_169" data-name="Rectangle 169" width="1.075" height="6.094" transform="translate(236.946 29.03) rotate(90)" fill="#3ad29f"/>
    <rect id="Rectangle_170" data-name="Rectangle 170" width="1.075" height="6.094" transform="translate(280.683 109.333)" fill="#3ad29f"/>
    <rect id="Rectangle_171" data-name="Rectangle 171" width="1.075" height="6.094" transform="translate(284.268 111.843) rotate(90)" fill="#3ad29f"/>
    <rect id="Rectangle_172" data-name="Rectangle 172" width="1.075" height="6.094" transform="translate(69.169 184.977)" fill="#3ad29f"/>
    <rect id="Rectangle_173" data-name="Rectangle 173" width="1.075" height="6.094" transform="translate(72.754 187.486) rotate(90)" fill="#3ad29f"/>
    <rect id="Rectangle_174" data-name="Rectangle 174" width="1.075" height="6.094" transform="translate(44.433 26.52)" fill="#3ad29f"/>
    <rect id="Rectangle_175" data-name="Rectangle 175" width="1.075" height="6.094" transform="translate(48.018 29.03) rotate(90)" fill="#3ad29f"/>
    <rect id="Rectangle_176" data-name="Rectangle 176" width="1.075" height="6.094" transform="translate(91.755 36.2)" fill="#3ad29f"/>
    <rect id="Rectangle_177" data-name="Rectangle 177" width="1.075" height="6.094" transform="translate(95.34 38.709) rotate(90)" fill="#3ad29f"/>
    <path id="Path_189" data-name="Path 189" d="M304.117,346.632a1.316,1.316,0,0,1-.735-1.592.665.665,0,0,0,.029-.147h0a.66.66,0,0,0-1.187-.437h0a.654.654,0,0,0-.072.129,1.319,1.319,0,0,1-1.592.735.714.714,0,0,0-.147-.029h0a.66.66,0,0,0-.437,1.187h0a.567.567,0,0,0,.129.072,1.323,1.323,0,0,1,.735,1.6.483.483,0,0,0-.029.143h0a.66.66,0,0,0,1.187.437h0a.745.745,0,0,0,.072-.129,1.316,1.316,0,0,1,1.592-.717.665.665,0,0,0,.147.029h0a.663.663,0,0,0,.437-1.19h0a.745.745,0,0,0-.129-.086Z" transform="translate(-234.912 -243.781)" fill="#f55f44"/>
    <path id="Path_190" data-name="Path 190" d="M871.149,66.632a1.316,1.316,0,0,1-.717-1.592.67.67,0,0,0,.029-.147h0a.66.66,0,0,0-1.187-.437h0a.65.65,0,0,0-.072.129,1.319,1.319,0,0,1-1.592.717.717.717,0,0,0-.147-.029h0a.66.66,0,0,0-.437,1.187h0a.569.569,0,0,0,.129.072,1.323,1.323,0,0,1,.735,1.6.48.48,0,0,0-.029.143h0a.66.66,0,0,0,1.187.437h0a.744.744,0,0,0,.072-.129,1.316,1.316,0,0,1,1.592-.717.668.668,0,0,0,.147.029h0a.663.663,0,0,0,.437-1.19h0A.746.746,0,0,0,871.149,66.632Z" transform="translate(-598.675 -64.16)" fill="#3ad29f"/>
    <path id="Path_191" data-name="Path 191" d="M519.149,82.632a1.316,1.316,0,0,1-.717-1.592.663.663,0,0,0,.029-.147h0a.66.66,0,0,0-1.187-.437h0a.646.646,0,0,0-.072.129,1.319,1.319,0,0,1-1.592.717.715.715,0,0,0-.147-.029h0a.66.66,0,0,0-.437,1.187h0a.566.566,0,0,0,.129.072,1.323,1.323,0,0,1,.735,1.6.484.484,0,0,0-.029.143h0a.66.66,0,0,0,1.187.437h0a.749.749,0,0,0,.072-.129,1.316,1.316,0,0,1,1.592-.717.668.668,0,0,0,.147.029h0a.663.663,0,0,0,.437-1.19h0a.744.744,0,0,0-.147-.068Z" transform="translate(-372.867 -74.424)" fill="#f55f44"/>
    <path id="Path_192" data-name="Path 192" d="M334.117,456.632a1.316,1.316,0,0,1-.735-1.592.665.665,0,0,0,.029-.147h0a.66.66,0,0,0-1.187-.437h0a.654.654,0,0,0-.072.129,1.319,1.319,0,0,1-1.592.735.72.72,0,0,0-.147-.029h0a.66.66,0,0,0-.437,1.187h0a.564.564,0,0,0,.129.072,1.323,1.323,0,0,1,.735,1.6.484.484,0,0,0-.029.143h0a.66.66,0,0,0,1.187.437h0a.747.747,0,0,0,.072-.129,1.316,1.316,0,0,1,1.592-.717.668.668,0,0,0,.147.029h0a.663.663,0,0,0,.437-1.19h0A.747.747,0,0,0,334.117,456.632Z" transform="translate(-254.157 -314.346)" fill="#f55f44"/>
    <path id="Path_193" data-name="Path 193" d="M776.149,328.632a1.316,1.316,0,0,1-.717-1.592.666.666,0,0,0,.029-.147h0a.66.66,0,0,0-1.187-.437h0a.654.654,0,0,0-.072.129,1.319,1.319,0,0,1-1.592.735.719.719,0,0,0-.147-.029h0a.66.66,0,0,0-.437,1.187h0a.567.567,0,0,0,.129.072,1.323,1.323,0,0,1,.735,1.6.486.486,0,0,0-.029.143h0a.66.66,0,0,0,1.187.437h0a.745.745,0,0,0,.072-.129,1.316,1.316,0,0,1,1.592-.717.665.665,0,0,0,.147.029h0a.663.663,0,0,0,.437-1.19h0A.746.746,0,0,0,776.149,328.632Z" transform="translate(-537.733 -232.233)" fill="#f55f44"/>
    <path id="Path_194" data-name="Path 194" d="M1072.149,224.632a1.316,1.316,0,0,1-.717-1.592.656.656,0,0,0,.029-.147h0a.66.66,0,0,0-1.187-.437h0a.653.653,0,0,0-.072.129,1.319,1.319,0,0,1-1.592.735.717.717,0,0,0-.147-.029h0a.66.66,0,0,0-.437,1.187h0a.566.566,0,0,0,.129.072,1.323,1.323,0,0,1,.717,1.6.484.484,0,0,0-.029.143h0a.66.66,0,0,0,1.187.437h0a.745.745,0,0,0,.072-.129,1.316,1.316,0,0,1,1.592-.717.669.669,0,0,0,.147.029h0a.663.663,0,0,0,.437-1.19h0a.746.746,0,0,0-.129-.086Z" transform="translate(-727.617 -165.517)" fill="#f55f44"/>
    <path id="Path_195" data-name="Path 195" d="M749.73,402.78l.057.179A.951.951,0,0,1,749.73,402.78Z" transform="translate(-523.6 -281.365)" fill="url(#linear-gradient)"/>
    <path id="Path_196" data-name="Path 196" d="M282.388,400.928c-.036-.05-.072-.1-.1-.151s-.039-.072-.057-.108a1.518,1.518,0,0,1-.079-.151l-.043-.108c-.018-.05-.039-.1-.054-.154l-.029-.1a.9.9,0,0,0-.036-.158v-.6l.022-.179v-.068a1.755,1.755,0,0,1,.043-.186V398.9a1.538,1.538,0,0,1,.065-.194v-.047c0-.014.054-.136.082-.2v-.029c.032-.072.068-.143.1-.212h0l.125-.219h0a7.73,7.73,0,0,1,1.792-1.932c5.36,2.2,11.977-.315,11.977-.315s8.826-4.413,8.2-3.151a3.87,3.87,0,0,0,.136,2.216,11.564,11.564,0,0,0,7.833-5.216l-4.818-5.195s19.574-11.049,21.768-16.72,12.906-21.746,12.906-21.746,3.467-12.608,9.773-15.444c0,0,12.573-15.018,19.911-27.9-2.606-6.485-6.238-16.624-5.413-20.958,1.029-5.377-.039-15.6-.466-19.194-3.488,2.907-17.663,14.43-23.173,14.154a12.3,12.3,0,0,1-6.095-2.57,43,43,0,0,1-9.02-8.461c.642.061,1.169-.527,1.6-1.509-5.263-5.736-16.165-17.48-17.355-17.717-1.574-.315-10.085-15.132-5.356-18.283s13.236,8.2,13.551,10.4c.215,1.495,6.811,8.066,11.027,12.139v-.165l.624.312v-.312l10.884,5.446L352,243.178s2.509-13.551,8.826-15.774,10.873-8.98,10.873-8.98a6.45,6.45,0,0,1,.14.67c.319-.419.491-.67.491-.67a.487.487,0,0,0,.036.151,16.466,16.466,0,0,0,.359-5.933l-.09-.054c-.039-.244-.079-.477-.122-.7a15.774,15.774,0,0,1-6.36-19.509c-1.606-1.122-3.943-1.821-5.915-2.674a17.316,17.316,0,0,1-7.109-5.377,6.263,6.263,0,0,1,3.295.068c.133-1.455-1.549-3.119-.24-4.227.81-.688,2.319-.627,3.477-.287a21.262,21.262,0,0,0,3.434,1.054,8.216,8.216,0,0,0,5.682-1.893c1.527-1.118,2.954-2.427,5-2.958,4.044-1.05,8.059,1.359,12.121,2.377,6.525,1.635,10.418,3.377,10.708,7.528a13.454,13.454,0,0,1,2.305,1.957,8.6,8.6,0,0,1,2.768,4.689c.552,2.829-.6,5.7-1.975,8.245-.785,1.434-4.557,8.9-7.12,7.912a15.773,15.773,0,0,1-2.359,2.2c.082.86.2,1.728.358,2.6a5.791,5.791,0,0,0,1.853.638,22.5,22.5,0,0,0,4.255.373,63.021,63.021,0,0,0,6.711-.409,56.461,56.461,0,0,1,6.521-.359,32.3,32.3,0,0,1,3.252.154h.168c.219.025.434.05.642.082h.1c.244.036.477.072.717.115h.075l.574.111.129.029c.2.043.394.09.584.14h0q.294.075.57.161l.093.029.448.14.1.036c.337.115.656.237.957.358l.093.039.358.161.068.032.423.2.036.018.358.179.09.043.359.183h.025l.448.233.269.14.125.065.359.186c3.151,1.577,33.724,9.773,39.076,26.17l-.108.1-.025.018-.122.111c.09.24.176.477.255.717,0,0-.52.466-1.33,1.226,1.434,6.27,5.291,22.284,7.317,23.044,2.509.946,5.36,20.173-1.258,19.542s-6.621-16.075-6.621-16.075-4.363-11.7-7.582-17.642a8.3,8.3,0,0,0-1.262,2.448l.022.065a.407.407,0,0,1-.022-.061,1.742,1.742,0,0,0-.036.828c-.312-.914-1.929-5.112-5.3-4.549-3.6.6-17.208-12.8-18.495-14.085.029.358.068.782.111,1.287h0v.018c.025.294.054.613.079.954v.108a1.3,1.3,0,0,0,.018.262.544.544,0,0,1,0,.172l.022.265v.186l.022.265v.24c0,.079.022.258.029.391s.018.212.025.315,0,.151,0,.226l.022.315v.215a1.731,1.731,0,0,0,.025.337.649.649,0,0,1,0,.222l.022.358v.208c0,.19.025.38.036.574v.075l.032.531v.183c0,.143.018.29.025.437v.208c0,.151.018.3.025.452v.186a3.516,3.516,0,0,0,.029.545v.1l.032.685v.039a4.546,4.546,0,0,0,.029.624v.179l.022.513v.9c0,.473.032.954.047,1.434v5.521c.022,6.876-.419,13.874-1.965,17.868a19.675,19.675,0,0,0-1.291,6.711,27.389,27.389,0,0,0,3.485,11.906h0l-.358-.115c.043.079.068.118.068.118l-.2-.065c.308.649.52,1.011.52,1.011s-.459-.147-1.276-.387a33.444,33.444,0,0,1-.3,18.352s-1.262,6.933-.315,9.457,1.893,22.693,1.893,22.693a4.3,4.3,0,0,0,5.356.946c3.467-1.563,45.988-6.933,45.988-6.933s.1.176.265.48c1.309-.409,3.194-1.032,4.574-1.613-.509-.717-.982-1.129-1.373-1.075,0,0,2.273-1.1,4.746-1.961h0l.452-.154h.018l.441-.143h.029l.423-.129h.047l.387-.108.079-.025.359-.093.093-.025.358-.079.1-.021.312-.065.118-.022.283-.047.133-.021.258-.029h1.183l.172.036.115.025a.436.436,0,0,1,.143.054.9.9,0,0,1,.1.039,1.213,1.213,0,0,1,.136.075c.025,0,.054.029.075.047a.92.92,0,0,1,.172.161c1.574,1.889,10.4,38.137,6.3,40.657-.122.075-.24.147-.359.212l-.143.082-.186.1-.179.1-.133.068-.194.093-.1.047-.2.086-.072.029c-.072.029-.143.057-.212.079h-.047l-.215.068h-.029c-2.284.617-3.044-1.5-5.815-6.03-2.714-4.442-6.2-10.038-9.246-12.11-.068.147-.133.3-.208.448,0,0-31.835,3.467-43.5,7.249s-20.793,8.823-28.368,0c-6.786-7.916-13.569-33.581-14.9-38.786h0c-.093-.358-.158-.635-.2-.782h0v-.115h0l-25.217,19.226L358,358.543S342.58,380.29,339.73,380.591s-16.075,21.116-16.075,21.116l-.48-.516c-.115.577-.2,1.108-.265,1.57,1.075,2.509.075,5.514-.871,7.5h0l-.039.079-.108.219-.057.115c-.036.068-.068.136-.1.2l-.054.1c-.036.072-.075.14-.111.208l-.054.1-.086.151-.043.075c-.036.068-.075.129-.108.19a.573.573,0,0,0-.047.079c-.025.036-.047.075-.068.111a.454.454,0,0,1-.039.061l-.082.136a.436.436,0,0,0-.032.054l-.054.079-.021.036-.054.082h0c0,.021-.022.032-.029.047h0s-33.1-7.887-37.194-10.4a4.162,4.162,0,0,1-.358-.244l-.1-.079c-.072-.057-.143-.111-.208-.168a1.429,1.429,0,0,1-.108-.1c-.054-.05-.111-.1-.158-.151s-.065-.072-.1-.108l-.125-.147Z" transform="translate(-223.544 -135.774)" fill="url(#linear-gradient-2)"/>
    <path id="Path_197" data-name="Path 197" d="M813.944,626.44s7.371-2.151,7.675-3.072,6.453,16.885,6.453,16.885l-6.141,4.3s-6.453-3.682-9.823-3.069S813.944,626.44,813.944,626.44Z" transform="translate(-562.887 -422.851)" fill="#4c4c56"/>
    <path id="Path_198" data-name="Path 198" d="M350.949,754.48s-.907,8.288-11.053,9.21,6.754,8.289,6.754,8.289l12.906.921a25.612,25.612,0,0,1,2.456-9.21C364.164,759.7,350.949,754.48,350.949,754.48Z" transform="translate(-258.61 -506.981)" fill="#4c4c56"/>
    <path id="Path_199" data-name="Path 199" d="M472.03,481.749s5.851,8.912,1.843,23.026c0,0-1.226,6.754-.3,9.21s1.839,22.1,1.839,22.1a4.181,4.181,0,0,0,5.22.921c3.377-1.534,44.812-6.754,44.812-6.754s6.754,11.666,3.069,18.728c0,0-31.007,3.377-42.364,7.059s-20.262,8.6-27.633,0-14.734-38.682-14.734-38.682L419.216,536.09l-10.755,12.587S393.4,569.86,390.655,570.165,375,590.736,375,590.736L359.34,573.851s19.036-10.755,21.184-16.272,12.587-21.18,12.587-21.18,3.377-12.282,9.518-15.057c0,0,22.105-26.4,24.252-38.682s36.839-6.453,36.839-6.453Z" transform="translate(-273.164 -327.582)" fill="#5f5d7e"/>
    <path id="Path_200" data-name="Path 200" d="M313.2,779.064s-2.151-4.911-1.534-6.138-7.984,3.069-7.984,3.069-6.453,2.456-11.666.308c0,0-4.6,3.374-.613,5.833s36.226,10.131,36.226,10.131,4.911-7.062.921-11.052Z" transform="translate(-228.541 -518.673)" fill="#986365"/>
    <path id="Path_201" data-name="Path 201" d="M380.564,561.771c2.151-5.524,12.587-21.18,12.587-21.18s3.377-12.282,9.518-15.057c0,0,22.1-26.4,24.252-38.682.445-2.531,2.273-4.3,4.89-5.492q2.151,6.431,4.284,12.859,2.922,8.783,5.847,17.566c1.126,3.388,2.194,7.17,2.09,10.669-.147-.584-.226-.907-.226-.907l-24.561,18.728-10.755,12.587s-15.057,21.184-17.807,21.488-15.656,20.571-15.656,20.571L359.37,578.036S378.417,567.3,380.564,561.771Z" transform="translate(-273.183 -331.774)" opacity="0.1"/>
    <path id="Path_202" data-name="Path 202" d="M530.648,264.72s2.61,6.6-.767,12.741,1.38,17.039,4.449,17.652,15.351-7.367,16.272-12.587-3.99-15.964-1.534-23.026Z" transform="translate(-381.821 -189.451)" fill="#fdc2cc"/>
    <path id="Path_203" data-name="Path 203" d="M530.793,305.75s-9.518,19.341-19.954,5.524c0,0-10.439,21.184-7.062,24.561a70.689,70.689,0,0,0,7.675,6.453l5.528,38.682s31.311-10.755,44.515-8.9l-20.262-48.5Z" transform="translate(-365.389 -219.12)" opacity="0.1"/>
    <path id="Path_204" data-name="Path 204" d="M530.793,303.18s-9.518,19.341-19.954,5.524c0,0-10.439,21.184-7.062,24.561a70.685,70.685,0,0,0,7.675,6.453L516.98,378.4s31.311-10.755,44.522-8.909l-20.262-48.5Z" transform="translate(-365.389 -217.472)" fill="#d39999"/>
    <path id="Path_205" data-name="Path 205" d="M751.843,365.69s5.216,23.948,7.672,24.869,5.22,19.646-1.226,19.033-6.453-15.656-6.453-15.656-6.747-18.1-9.511-20.248S751.843,365.69,751.843,365.69Z" transform="translate(-518.589 -257.572)" fill="#fdc2cc"/>
    <path id="Path_206" data-name="Path 206" d="M381.694,350.491s-13.817-12.906-14.121-15.057-8.6-13.2-13.2-10.131,3.685,17.5,5.22,17.807,19.649,20.262,19.649,20.262Z" transform="translate(-269.093 -231.321)" fill="#fdc2cc"/>
    <path id="Path_207" data-name="Path 207" d="M574.058,289.05s1.689,1.993,13.046.767,14.121.921,17.208,2.456,32.849,9.518,38.065,25.482c0,0-11.666,10.436-10.436,13.2,0,0-1.534-5.22-5.22-4.6s-18.115-13.817-18.115-13.817,2.764,27.016-.918,36.535,1.839,19.033,1.839,19.033-26.1-8.288-37.761-4.3c0,0-6.754-30.393-.921-42.661s-2.456-23.948-2.456-23.948Z" transform="translate(-407.27 -208.407)" opacity="0.1"/>
    <path id="Path_208" data-name="Path 208" d="M573.179,286.48s1.688,2,13.046.767,14.125.921,17.208,2.456,32.835,9.511,38.055,25.482c0,0-11.666,10.436-10.44,13.2,0,0-1.534-5.22-5.22-4.6s-18.111-13.813-18.111-13.813,2.764,27.016-.921,36.535,1.843,19.033,1.843,19.033-26.1-8.288-37.761-4.3c0,0-6.754-30.394-.921-42.661s-2.456-23.948-2.456-23.948Z" transform="translate(-406.699 -206.759)" opacity="0.1"/>
    <path id="Path_209" data-name="Path 209" d="M574.032,286.48s1.689,2,13.046.767,14.121.921,17.208,2.456,32.835,9.511,38.051,25.482c0,0-11.666,10.436-10.436,13.2,0,0-1.534-5.22-5.22-4.6s-18.115-13.813-18.115-13.813,2.764,27.016-.918,36.535,1.839,19.033,1.839,19.033-26.1-8.288-37.761-4.3c0,0-6.754-30.394-.921-42.661s-2.456-23.948-2.456-23.948Z" transform="translate(-407.244 -206.759)" fill="#ec7580"/>
    <path id="Path_210" data-name="Path 210" d="M459.606,301.89s-4.453,6.6-10.59,8.751-8.6,15.351-8.6,15.351L431.2,338.579l-11.042-5.528s-.308,15.057-3.377,14.738c0,0,7.675,9.823,13.813,10.131s23.335-14.43,23.335-14.43,1.843,13.508.613,19.954,7.675,26.1,7.675,26.1l12.279-2.456s-6.453-24.561-14.43-28.551c0,0,0-16.577,1.23-20.571s-7.984-19.033-6.754-22.1c.688-1.724,3.395-5.406,4.757-8.751A8.747,8.747,0,0,0,459.606,301.89Z" transform="translate(-310.012 -216.644)" opacity="0.1"/>
    <path id="Path_211" data-name="Path 211" d="M457.036,300.18s-4.453,6.6-10.59,8.751-8.6,15.347-8.6,15.347l-9.21,12.587-11.045-5.524s-.308,15.057-3.377,14.738c0,0,7.675,9.823,13.817,10.131s23.331-14.43,23.331-14.43,1.843,13.508.613,19.954,7.693,26.1,7.693,26.1l12.279-2.456s-6.453-24.561-14.426-28.551c0,0,0-16.581,1.226-20.571s-7.98-19.033-6.754-22.1c.688-1.721,3.395-5.4,4.757-8.747A8.748,8.748,0,0,0,457.036,300.18Z" transform="translate(-308.363 -215.547)" opacity="0.1"/>
    <path id="Path_212" data-name="Path 212" d="M458.746,300.18s-4.438,6.6-10.59,8.751-8.6,15.347-8.6,15.347l-9.21,12.587L419.3,331.341s-.3,15.057-3.377,14.738c0,0,7.675,9.823,13.817,10.131s23.331-14.43,23.331-14.43,1.843,13.508.613,19.954,7.675,26.1,7.675,26.1l12.282-2.456s-6.453-24.561-14.43-28.551c0,0,0-16.581,1.226-20.571s-7.98-19.033-6.754-22.1c.692-1.721,3.4-5.4,4.761-8.747A8.765,8.765,0,0,0,458.746,300.18Z" transform="translate(-309.46 -215.547)" fill="#ec7580"/>
    <path id="Path_213" data-name="Path 213" d="M457.3,301.63s-4.449,6.586-10.59,8.737-8.6,15.347-8.6,15.347l-9.2,12.616-11.052-5.524s-.3,15.057-3.377,14.734c0,0,7.675,9.826,13.817,10.131s23.331-14.426,23.331-14.426,1.843,13.508.613,19.954,7.675,26.1,7.675,26.1l12.282-2.456s-6.453-24.561-14.43-28.551c0,0,0-16.581,1.226-20.571s-7.98-19.033-6.754-22.105c.692-1.721,3.4-5.406,4.761-8.747A8.765,8.765,0,0,0,457.3,301.63Z" transform="translate(-308.53 -216.477)" opacity="0.05"/>
    <path id="Path_214" data-name="Path 214" d="M827.716,618.232s8.9-4.3,10.44-2.456,10.128,37.148,6.137,39.6-4.3.613-7.675-4.911-7.98-12.906-11.357-12.587c0,0,9.823-3.377,9.518-4.607S829.863,617.927,827.716,618.232Z" transform="translate(-572.052 -417.707)" fill="#986365"/>
    <path id="Path_215" data-name="Path 215" d="M551.964,268.541a15.351,15.351,0,0,1-17.108.964,15.416,15.416,0,0,0-.756-3.069l18.42-5.216A17.322,17.322,0,0,0,551.964,268.541Z" transform="translate(-385.272 -190.554)" opacity="0.1"/>
    <path id="Path_216" data-name="Path 216" d="M507.912,207.251c-3.743.326-8.3-.38-9.679-2.929-.4-.717-.484-1.538-.889-2.269-1.172-2.112-4.531-2.976-7.227-4.133a16.863,16.863,0,0,1-6.926-5.238,6.127,6.127,0,0,1,3.227.065c.133-1.434-1.509-3.036-.233-4.119a3.921,3.921,0,0,1,3.384-.276,20.552,20.552,0,0,0,3.348,1.025,8.024,8.024,0,0,0,5.535-1.843c1.488-1.09,2.868-2.366,4.865-2.868,3.943-1.025,7.851,1.323,11.809,2.312,8.113,2.033,12.046,4.234,9.841,11.289C523.306,203.466,514.72,206.663,507.912,207.251Z" transform="translate(-352.614 -141.282)" fill="#865a61"/>
    <circle id="Ellipse_49" data-name="Ellipse 49" cx="15.351" cy="15.351" r="15.351" transform="translate(142.07 49.787)" fill="#fdc2cc"/>
    <path id="Path_217" data-name="Path 217" d="M543.284,212.349c-.742-3.011-2.886-5.826-5.876-6.661-2.542-.717-5.245.061-7.726.961s-5.019,1.95-7.65,1.792-5.4-1.972-5.6-4.6a2.2,2.2,0,0,1,.19-1.19,2.889,2.889,0,0,1,1.1-1.015c3.861-2.463,8.245-4.4,12.831-4.327,3.768.061,7.367,1.473,10.87,2.868,4.42,1.757,9.443,4.212,10.353,8.876.538,2.757-.577,5.557-1.922,8.02-.778,1.434-4.553,8.891-7.052,7.661C541.8,224.237,543.761,214.285,543.284,212.349Z" transform="translate(-373.929 -149.552)" opacity="0.1"/>
    <path id="Path_218" data-name="Path 218" d="M541.569,210.633c-.742-3.015-2.889-5.826-5.879-6.661-2.542-.717-5.245.061-7.726.961s-5.019,1.95-7.65,1.792-5.4-1.975-5.6-4.607a2.218,2.218,0,0,1,.194-1.19,2.961,2.961,0,0,1,1.1-1.015c3.865-2.459,8.245-4.4,12.834-4.327,3.768.065,7.367,1.477,10.87,2.868,4.417,1.757,9.443,4.212,10.353,8.876.538,2.753-.581,5.553-1.925,8.016-.774,1.434-4.549,8.894-7.048,7.665C540.082,222.521,542.053,212.583,541.569,210.633Z" transform="translate(-372.827 -148.449)" fill="#865a61"/>
    <path id="Path_219" data-name="Path 219" d="M856.035,655.693c3.994-2.456-4.6-37.761-6.138-39.6-.674-.807-2.764-.434-4.9.237,2.423-.846,5.048-1.466,5.818-.545,1.534,1.843,10.128,37.148,6.138,39.6a7.216,7.216,0,0,1-2.226,1.015A11.071,11.071,0,0,0,856.035,655.693Z" transform="translate(-584.715 -417.713)" fill="#fff" opacity="0.5"/>
    <path id="Path_220" data-name="Path 220" d="M290.287,788c-.412,1.058-.287,2.284,1.434,3.338,3.99,2.456,36.226,10.131,36.226,10.131a16,16,0,0,0,.878-1.491,16.528,16.528,0,0,1-1.187,2.108s-32.24-7.683-36.23-10.142C289.348,790.678,289.581,789.162,290.287,788Z" transform="translate(-228.542 -528.484)" fill="#fff" opacity="0.5"/>
    <g id="Group_107" data-name="Group 107" transform="translate(164.293 79.721)" opacity="0.05">
      <path id="Path_221" data-name="Path 221" d="M678.832,326.181c2.552-4.1,9.622-10.432,9.622-10.432-5.22-15.964-35-23.944-38.065-25.482a20.173,20.173,0,0,0-6.3-2.427,19.242,19.242,0,0,1,8.755,2.735c3.069,1.534,32.849,9.518,38.065,25.482,0,0-11.21,10.038-10.493,13.028a9.636,9.636,0,0,0-1.585-2.9Z" transform="translate(-620.124 -287.352)"/>
      <path id="Path_222" data-name="Path 222" d="M745.46,402.89l.057.172a.884.884,0,0,1-.057-.172Z" transform="translate(-685.153 -361.157)"/>
      <path id="Path_223" data-name="Path 223" d="M583.21,286.986l.358-.506a3.911,3.911,0,0,0,2.04.8,18.572,18.572,0,0,1-2.4-.294Z" transform="translate(-581.07 -286.48)"/>
      <path id="Path_224" data-name="Path 224" d="M727.731,389.928a4.068,4.068,0,0,1-1.341-.358A3.345,3.345,0,0,1,727.731,389.928Z" transform="translate(-672.92 -352.612)"/>
      <path id="Path_225" data-name="Path 225" d="M592.107,491.815c-5.492-.606-10.855-.613-14.677.692,0,0-.072-.319-.19-.9C581.427,490.793,586.808,491.073,592.107,491.815Z" transform="translate(-577.24 -417.753)"/>
      <path id="Path_226" data-name="Path 226" d="M670.416,406.2c-1.076-2.069-4.764-10.3-1.577-18.534,3.685-9.518.921-36.535.921-36.535s1.054,1.054,2.664,2.578c.567,6.7,1.907,26.414-1.115,34.265-3.7,9.515,1.828,19.036,1.828,19.036S672.126,406.683,670.416,406.2Z" transform="translate(-635.186 -327.953)"/>
    </g>
  </g>
</svg>
