<svg xmlns="http://www.w3.org/2000/svg" width="320.151" height="209.723" viewBox="0 0 320.151 209.723">
  <g id="Group_150" data-name="Group 150" transform="translate(-0.002 -0.005)">
    <path id="Path_229" data-name="Path 229" d="M96.2,182.781c-2.411,7.3,4.677,13.861,10.251,19.146a75.1,75.1,0,0,1,17.671,25.753c2.423,5.879,4.109,12.2,3.657,18.547-1.281,17.991-18.224,29.978-31.761,41.9a19.638,19.638,0,0,0-4.953,5.785c-3.588,7.373,2.511,15.869,9.228,20.571,23.92,16.736,58.447,11.758,81.648-5.96,12.015-9.178,22.342-21.657,36.9-25.738,9.31-2.6,19.19-1.365,28.823-.565a306.894,306.894,0,0,0,43.421.515c5.078-.314,10.389-.8,14.642-3.594,10.769-7.056,8.952-23.785,16.723-34.049,5.587-7.376,15.132-10.22,23.44-14.3A73.334,73.334,0,0,0,376.6,202.3c6.67-11.353,10.126-24.259,13.5-36.984,2.542-9.561,5.094-19.573,2.941-29.231s-10.653-18.676-20.509-17.828c-7.568.65-13.588,6.629-20.876,8.77-17.458,5.141-34.407-12.715-52.517-10.992-11.4,1.083-20.6,9.73-27.552,18.832s-12.837,19.35-22.018,26.205c-14.281,10.672-33.848,11.048-51.331,7.593S163.979,158.406,146.3,156.14c-10.414-1.334-18.4,4.871-27.775,8.283C109.92,167.555,99.39,173.13,96.2,182.781Z" transform="translate(-90 -115.91)" fill="#e3f1f2" opacity="0.1"/>
    <ellipse id="Ellipse_50" data-name="Ellipse 50" cx="22.831" cy="6.937" rx="22.831" ry="6.937" transform="translate(20.469 195.855)" fill="#e3f1f2" opacity="0.1"/>
    <ellipse id="Ellipse_51" data-name="Ellipse 51" cx="60.976" cy="4.046" rx="60.976" ry="4.046" transform="translate(198.201 110.026)" fill="#e3f1f2" opacity="0.1"/>
    <g id="Group_109" data-name="Group 109" transform="translate(200.514 21.472)" opacity="0.5">
      <path id="Path_230" data-name="Path 230" d="M701.309,68.4h0a3.189,3.189,0,0,1,3.189,3.189v88.669H698.12V71.586A3.189,3.189,0,0,1,701.309,68.4Z" transform="translate(-679.51 -68.4)" fill="#e3f1f2"/>
      <path id="Path_231" data-name="Path 231" d="M924.2,68.4h0a3.189,3.189,0,0,1,3.189,3.189v88.669H921V71.586a3.189,3.189,0,0,1,3.2-3.186Z" transform="translate(-832.434 -68.4)" fill="#e3f1f2"/>
      <rect id="Rectangle_178" data-name="Rectangle 178" width="6.378" height="113.572" rx="3.189" transform="translate(113.572 13.443) rotate(90)" fill="#e3f1f2"/>
      <rect id="Rectangle_179" data-name="Rectangle 179" width="4.997" height="23.955" rx="2.498" transform="translate(11.717 4.652)" fill="#e3f1f2"/>
      <rect id="Rectangle_180" data-name="Rectangle 180" width="4.997" height="19.476" rx="2.498" transform="translate(6.72 6.893)" fill="#e3f1f2"/>
      <rect id="Rectangle_181" data-name="Rectangle 181" width="4.997" height="23.955" rx="2.498" transform="translate(101.852 28.607) rotate(180)" fill="#e3f1f2"/>
      <rect id="Rectangle_182" data-name="Rectangle 182" width="4.997" height="19.476" rx="2.498" transform="translate(106.849 26.365) rotate(180)" fill="#e3f1f2"/>
    </g>
    <g id="Group_110" data-name="Group 110" transform="translate(245.596 58.585)" opacity="0.5">
      <path id="Path_232" data-name="Path 232" d="M787.823,186.64h13.038a5.336,5.336,0,0,1,5.336,5.336v22.4H782.5v-22.4A5.336,5.336,0,0,1,787.823,186.64Z" transform="translate(-782.487 -186.64)" fill="#e3f1f2"/>
      <rect id="Rectangle_183" data-name="Rectangle 183" width="3.468" height="11.56" transform="translate(10.113 25.722)" fill="#e3f1f2"/>
      <rect id="Rectangle_184" data-name="Rectangle 184" width="3.468" height="11.56" transform="translate(3.176 38.726)" fill="#e3f1f2"/>
      <rect id="Rectangle_185" data-name="Rectangle 185" width="3.468" height="11.56" transform="translate(17.627 38.726)" fill="#e3f1f2"/>
      <rect id="Rectangle_186" data-name="Rectangle 186" width="23.698" height="3.18" transform="translate(0 36.413)" fill="#e3f1f2"/>
    </g>
    <ellipse id="Ellipse_52" data-name="Ellipse 52" cx="130.044" cy="9.535" rx="130.044" ry="9.535" transform="translate(18.448 171.872)" fill="#e3f1f2" opacity="0.1"/>
    <path id="Path_233" data-name="Path 233" d="M670.36,570.527s8.958,4.046,13.293,4.046a56.883,56.883,0,0,1,7.219,2.313c2.6,1.158,12.715,1.733,12.715,1.733s11.849,4.335,13.293,6.359,5.778-7.219,5.778-7.219l-2.313-5.778-43.628-8.38Z" transform="translate(-488.198 -423.078)" fill="#ffb9b9"/>
    <path id="Path_234" data-name="Path 234" d="M670.36,570.527s8.958,4.046,13.293,4.046a56.883,56.883,0,0,1,7.219,2.313c2.6,1.158,12.715,1.733,12.715,1.733s11.849,4.335,13.293,6.359,5.778-7.219,5.778-7.219l-2.313-5.778-43.628-8.38Z" transform="translate(-488.198 -423.078)" opacity="0.05"/>
    <path id="Path_235" data-name="Path 235" d="M811.23,604.707s5.49,7.219,3.179,11.56-1.444,4.335,0,4.623,9.536,2.024,10.405-4.335,2.6-20.518,2.6-20.518l-11.865-1.158S818.744,605.574,811.23,604.707Z" transform="translate(-584.853 -444.54)" fill="#737a9d"/>
    <path id="Path_236" data-name="Path 236" d="M593.94,545.183l24.853,11.56s7.8-6.07,7.219-9.247l-28.9-6.937Z" transform="translate(-435.765 -407.27)" fill="#4c4c78"/>
    <path id="Path_237" data-name="Path 237" d="M593.94,545.183l24.853,11.56s7.8-6.07,7.219-9.247l-28.9-6.937Z" transform="translate(-435.765 -407.27)" opacity="0.1"/>
    <path id="Path_238" data-name="Path 238" d="M782.94,558.27l-2.611,6.356-6.058,1.438a38.71,38.71,0,0,0-5.427-3.792c-3.261-1.883-7.552-3.726-11.613-3.434,0,0-16.183-2.6-17.05-3.766,0,0-10.405-2.313-12.715-2.025-1.114.138-3.509-.662-5.687-1.532-2.338-.942-4.429-1.937-4.429-1.937l7.514-11.849a20.211,20.211,0,0,0,2.7.942,55.659,55.659,0,0,0,15.509,1.933c12.137,0,28.9,12.426,28.9,12.426s.166.057.452.141c1.255.38,4.834,1.274,6.485-.141C780.916,551.333,782.94,558.27,782.94,558.27Z" transform="translate(-520.439 -405.328)" fill="#ffb9b9"/>
    <path id="Path_239" data-name="Path 239" d="M895.506,591.182l-2.611,6.356-6.058,1.438a38.7,38.7,0,0,0-5.427-3.792c8.814.662,3.55-9.068,3.55-9.068h.019c1.255.38,4.834,1.274,6.485-.141C893.482,584.245,895.506,591.182,895.506,591.182Z" transform="translate(-633.005 -438.24)" opacity="0.1"/>
    <path id="Path_240" data-name="Path 240" d="M881.52,594.948s6.99,9.8,4.049,15.323-1.839,5.518,0,5.888,12.144,2.577,13.245-5.518c.847-6.224.1-18.17-.286-23.355a2.476,2.476,0,0,0-2.693-2.279l-10.223.942S891.087,596.053,881.52,594.948Z" transform="translate(-633.081 -437.76)" fill="#737a9d"/>
    <path id="Path_241" data-name="Path 241" d="M262.71,525.131,263,539.293l3.18,2.31h10.982l2.021-2.888V525.131L276,522.24H265.6Z" transform="translate(-180.251 -358.319)" fill="#e3f1f2"/>
    <path id="Path_242" data-name="Path 242" d="M354.443,648.28s2.025,13,0,14.162L353,662.153l-.289-13.87Z" transform="translate(-270.25 -481.179)" fill="#fff" opacity="0.2"/>
    <path id="Path_243" data-name="Path 243" d="M433.716,639.543l2.313-2.313h10.986l2.313,2.313s2.891,8.38.578,13.87l-2.608,2.6H436.312l-2.6-2.313Z" transform="translate(-325.827 -473.598)" fill="#e3f1f2"/>
    <path id="Path_244" data-name="Path 244" d="M262.71,525.131,263,539.293l3.18,2.31h10.982l2.021-2.888V525.131L276,522.24H265.6Z" transform="translate(-180.251 -358.319)" opacity="0.1"/>
    <path id="Path_245" data-name="Path 245" d="M433.716,639.543l2.313-2.313h10.986l2.313,2.313s2.891,8.38.578,13.87l-2.608,2.6H436.312l-2.6-2.313Z" transform="translate(-325.827 -473.598)" opacity="0.1"/>
    <path id="Path_246" data-name="Path 246" d="M436.312,645.177s2.313,10.116,0,13.581h-2.6V644.6Z" transform="translate(-325.827 -478.654)" fill="#fff" opacity="0.2"/>
    <path id="Path_247" data-name="Path 247" d="M405.19,491.76s1.155,11.271,1.155,12.715-.578,10.986,1.155,20.229-1.155,20.8-1.155,20.8h9.536l4.046-31.212-2.891-16.472-1.155-5.2Z" transform="translate(-306.258 -373.787)" fill="#ffb9b9"/>
    <path id="Path_248" data-name="Path 248" d="M405.19,491.76s1.155,11.271,1.155,12.715-.578,10.986,1.155,20.229-1.155,20.8-1.155,20.8h9.536l4.046-31.212-2.891-16.472-1.155-5.2Z" transform="translate(-306.258 -373.787)" opacity="0.05"/>
    <path id="Path_249" data-name="Path 249" d="M385.442,400.132s-12.715.289-2.6,21.384c0,0,2.6,8.669,2.6,10.116s13,1.444,14.438,0-2.313-13.293-2.313-18.785S393.822,398.4,385.442,400.132Z" transform="translate(-288.243 -310.768)" fill="#cbcdda"/>
    <path id="Path_250" data-name="Path 250" d="M385.442,400.132s-12.715.289-2.6,21.384c0,0,2.6,8.669,2.6,10.116s13,1.444,14.438,0-2.313-13.293-2.313-18.785S393.822,398.4,385.442,400.132Z" transform="translate(-288.243 -310.768)" opacity="0.05"/>
    <path id="Path_251" data-name="Path 251" d="M336.99,361s10.986,11.849,20.229,3.18l-1.155,30.634s-15.028-18.2-25.424-16.761Z" transform="translate(-255.108 -284.069)" fill="#ffb9b9"/>
    <path id="Path_252" data-name="Path 252" d="M727.523,538.747c-.439,3.387-1.82,10.518-5.785,12.828-2.338-.942-4.429-1.937-4.429-1.937l7.514-11.849A20.187,20.187,0,0,0,727.523,538.747Z" transform="translate(-520.412 -405.369)" opacity="0.1"/>
    <path id="Path_253" data-name="Path 253" d="M613.767,473.633s-.866,14.162-7.8,15.317l-41.9-7.558a12.646,12.646,0,0,1-5.568-2.511,28.779,28.779,0,0,1-4.994-4.8,3.985,3.985,0,0,1-1-2.48c.289-3.18,13-10.694,8.669-23.986a7.921,7.921,0,0,1,2.034-1.168c3.619-1.5,11.949-2.608,23.974,9.837C587.181,456.3,609.432,474.223,613.767,473.633Z" transform="translate(-407.33 -342.088)" fill="#4c4c78"/>
    <path id="Path_254" data-name="Path 254" d="M296.78,528.818l.289,14.162,3.176,2.313h10.982l2.025-2.891V528.818l-3.18-2.888h-10.4Z" transform="translate(-203.627 -360.851)" fill="#e3f1f2"/>
    <path id="Path_255" data-name="Path 255" d="M388.513,652s2.025,13,0,14.162l-1.444-.289L386.78,652Z" transform="translate(-293.627 -483.732)" fill="#fff" opacity="0.2"/>
    <path id="Path_256" data-name="Path 256" d="M488.06,642.3l2.313-2.313h10.986l2.313,2.313s2.891,8.38.578,13.87l-2.6,2.6H490.662l-2.6-2.313Z" transform="translate(-363.118 -475.491)" fill="#e3f1f2"/>
    <path id="Path_257" data-name="Path 257" d="M490.652,647.938s2.313,10.116,0,13.581h-2.6V647.36Z" transform="translate(-363.111 -480.548)" fill="#fff" opacity="0.2"/>
    <path id="Path_258" data-name="Path 258" d="M434.161,664.86H449.8a2.345,2.345,0,0,1,2.216,2.458h0a2.347,2.347,0,0,1-2.216,2.458H434.161a2.372,2.372,0,0,1-2.2-2.743h0A2.309,2.309,0,0,1,434.161,664.86Z" transform="translate(-324.617 -492.555)" fill="#e3f1f2"/>
    <path id="Path_259" data-name="Path 259" d="M562.03,470.687a81.091,81.091,0,0,1-8.534,4.793,3.985,3.985,0,0,1-1-2.48c.289-3.18,13-10.694,8.669-23.986a7.922,7.922,0,0,1,2.034-1.168,8.829,8.829,0,0,0,2.012-.276S567.809,466.641,562.03,470.687Z" transform="translate(-407.323 -343.467)" opacity="0.1"/>
    <path id="Path_260" data-name="Path 260" d="M375.75,381.309a64.392,64.392,0,0,0,8.525,7.081c3.867,2.533-3.035-22.976-3.035-22.976s4.281-3.453,6.8-5.5a8.613,8.613,0,0,1,5.989-1.946c5.785.374,16.381,2.806,24.931,14.532,12.426,17.05,23.7,13.581,23.7,13.581s2.6,19.074-3.18,23.12-12.137,5.49-10.986,7.8-5.2-11.271-19.652-13.581-30.345-12.426-30.053-17.338C378.785,386.08,374.595,382.762,375.75,381.309Z" transform="translate(-285.92 -281.977)" fill="#cbcdda"/>
    <path id="Path_261" data-name="Path 261" d="M345.037,369.837a14.517,14.517,0,0,0-.22-2.492c-3.785-1.883-3.249-4.444-3.249-4.444l-6.359,17.05a13.463,13.463,0,0,1,7.451,1.569C346.042,378.848,345.037,374.447,345.037,369.837Z" transform="translate(-258.243 -285.373)" opacity="0.1"/>
    <circle id="Ellipse_53" data-name="Ellipse 53" cx="14.451" cy="14.451" r="14.451" transform="translate(59.628 69.712)" fill="#ffb9b9"/>
    <path id="Path_262" data-name="Path 262" d="M270.457,341.848a3.712,3.712,0,0,1-1.453,2.2,2.754,2.754,0,0,1-3.079-.439,5.192,5.192,0,0,1-1.525-2.881,9.674,9.674,0,0,1,.157-4.724c.377-1.3,1.026-2.511,1.3-3.845.292-1.419.144-2.9.471-4.316a13.216,13.216,0,0,1,2.935-5.053,5.216,5.216,0,0,1,3.4-2.26l6.048-1.824a20.441,20.441,0,0,1,3.522-.841,12.2,12.2,0,0,1,4.579.4,10.551,10.551,0,0,1,3.321,1.481,12.282,12.282,0,0,1,2.621,2.652c3.2,4.181,5.022,11.02,8.321,15.135-1.3.4-2.605-.942-3.908-.534a.916.916,0,0,1-.587.047.964.964,0,0,1-.43-.477,10,10,0,0,0-5.113-4.375c-1.6-.606-3.767-.6-4.642.866-.593.992-.355,2.244-.2,3.39s.129,2.511-.778,3.217a3.365,3.365,0,0,1-1.689.571,18.607,18.607,0,0,1-8.368-.819c-.942-.314-1.9-1.3-2.894-.982C271.123,338.859,270.812,340.708,270.457,341.848Z" transform="translate(-209.508 -254.427)" opacity="0.1"/>
    <path id="Path_263" data-name="Path 263" d="M269.447,340.844a3.712,3.712,0,0,1-1.453,2.2,2.754,2.754,0,0,1-3.079-.439,5.192,5.192,0,0,1-1.525-2.881,9.673,9.673,0,0,1,.157-4.724c.377-1.3,1.026-2.511,1.3-3.845.292-1.419.144-2.9.471-4.316a13.217,13.217,0,0,1,2.935-5.053,5.216,5.216,0,0,1,3.4-2.26L277.7,317.7a20.436,20.436,0,0,1,3.522-.838,12.2,12.2,0,0,1,4.579.4,10.55,10.55,0,0,1,3.321,1.481,12.282,12.282,0,0,1,2.621,2.652c3.2,4.181,5.022,11.02,8.321,15.135-1.3.4-2.605-.942-3.908-.534a.917.917,0,0,1-.587.047.964.964,0,0,1-.436-.477,10,10,0,0,0-5.113-4.375c-1.6-.606-3.767-.6-4.642.866-.593.992-.355,2.244-.2,3.39s.129,2.511-.778,3.217a3.365,3.365,0,0,1-1.689.571,18.607,18.607,0,0,1-8.368-.819c-.942-.314-1.9-1.3-2.894-.982C270.113,337.856,269.8,339.705,269.447,340.844Z" transform="translate(-208.815 -253.741)" fill="#b96b6b"/>
    <g id="Group_111" data-name="Group 111" transform="translate(89.606 82.65)" opacity="0.1">
      <path id="Path_264" data-name="Path 264" d="M394.659,379.22l-.979.791s4.046,14.95,4.206,20.822C399.951,400.275,395.978,384.28,394.659,379.22Z" transform="translate(-387.967 -379.22)"/>
      <path id="Path_265" data-name="Path 265" d="M439.986,457.954c-5.778,4.046-12.138,5.49-10.986,7.8s-5.2-11.271-19.652-13.581c-13.556-2.169-28.384-11.205-29.928-16.372-2.166-1.852-3.741-3.424-3.741-3.424-1.155,1.444,3.035,4.768,3.035,4.768-.289,4.912,15.606,15.028,30.053,17.338s20.807,15.895,19.652,13.581,5.2-3.766,10.986-7.8c1.654-1.158,2.621-3.547,3.161-6.369A7.5,7.5,0,0,1,439.986,457.954Z" transform="translate(-375.478 -415.694)"/>
    </g>
    <path id="Path_266" data-name="Path 266" d="M450.172,507.5c-.866,1.155-1.444,13-1.444,13s3.453,17.05-7.219,15.317-1.444-13.87-1.444-13.87l-1.444-16.761c-5.49-14.438-4.335-24.853-4.335-24.853l-1.026-9.438-.421-3.854,12.426-2.891c-.339.452-.195,3.271.11,6.544.474,5.129,1.334,11.372,1.334,11.372C449.3,484.954,451.038,506.338,450.172,507.5Z" transform="translate(-325.23 -354.843)" fill="#ffb9b9"/>
    <path id="Path_267" data-name="Path 267" d="M417.662,380.8s-12.715.289-2.6,21.384c0,0,2.6,8.669,2.6,10.116s13,1.444,14.438,0-2.313-13.293-2.313-18.785S426.042,379.064,417.662,380.8Z" transform="translate(-310.35 -297.504)" opacity="0.1"/>
    <path id="Path_268" data-name="Path 268" d="M445.339,470.694a36.745,36.745,0,0,1-12.119.2l-.421-3.854,12.426-2.891C444.894,464.6,445.038,467.417,445.339,470.694Z" transform="translate(-325.202 -354.843)" opacity="0.1"/>
    <path id="Path_269" data-name="Path 269" d="M415.822,380.8s-12.715.289-2.6,21.384c0,0,2.6,8.669,2.6,10.116s13,1.444,14.438,0-2.313-13.293-2.313-18.785S424.2,379.064,415.822,380.8Z" transform="translate(-309.087 -297.504)" fill="#cbcdda"/>
    <g id="Group_112" data-name="Group 112" transform="translate(12.852 128.532)" opacity="0.5">
      <path id="Path_270" data-name="Path 270" d="M51.643,409.5l-9.2.188-1.5,2.065v7.137l1.877,1.315h8.826l1.88-2.065V411.38Z" transform="translate(-40.94 -409.497)" fill="#e3f1f2"/>
      <path id="Path_271" data-name="Path 271" d="M144.333,526.53s-8.453,1.315-9.2,0l.188-.942,9.014-.188Z" transform="translate(-133.815 -525.4)" fill="#fff" opacity="0.2"/>
      <path id="Path_272" data-name="Path 272" d="M144.036,591.23l1.5,1.5v7.137l-1.5,1.5s-5.446,1.883-9.014.377l-1.692-1.692v-7.137l1.5-1.692Z" transform="translate(-132.58 -570.568)" fill="#e3f1f2"/>
      <path id="Path_273" data-name="Path 273" d="M146.946,592.922s-6.573,1.5-8.826,0V591.23h9.2Z" transform="translate(-135.866 -570.568)" fill="#fff" opacity="0.2"/>
      <path id="Path_274" data-name="Path 274" d="M149.085,556.209v10.16a1.525,1.525,0,0,1-1.6,1.441h0a1.525,1.525,0,0,1-1.6-1.441v-10.16a1.546,1.546,0,0,1,1.783-1.431h0A1.5,1.5,0,0,1,149.085,556.209Z" transform="translate(-141.198 -545.55)" fill="#e3f1f2"/>
      <path id="Path_275" data-name="Path 275" d="M98.6,410.42l-9.2.188-1.5,2.065v7.137l1.88,1.315H98.6l1.877-2.065V412.3Z" transform="translate(-73.154 -410.128)" fill="#e3f1f2"/>
      <path id="Path_276" data-name="Path 276" d="M191.283,527.46s-8.453,1.315-9.2,0l.188-.942,9.014-.188Z" transform="translate(-166.028 -526.038)" fill="#fff" opacity="0.2"/>
      <path id="Path_277" data-name="Path 277" d="M190.986,592.153l1.5,1.5v7.138l-1.5,1.5s-5.446,1.883-9.014.377l-1.692-1.692v-7.141l1.5-1.692Z" transform="translate(-164.793 -571.199)" fill="#e3f1f2"/>
      <path id="Path_278" data-name="Path 278" d="M193.906,593.842s-6.573,1.5-8.826,0V592.15h9.2Z" transform="translate(-168.087 -571.199)" fill="#fff" opacity="0.2"/>
      <path id="Path_279" data-name="Path 279" d="M196.015,557.129v10.16a1.525,1.525,0,0,1-1.6,1.441h0a1.525,1.525,0,0,1-1.6-1.441v-10.16A1.546,1.546,0,0,1,194.6,555.7h0a1.5,1.5,0,0,1,1.412,1.431Z" transform="translate(-173.397 -546.182)" fill="#e3f1f2"/>
      <path id="Path_280" data-name="Path 280" d="M162.514,427.74l-7.577.154-1.237,1.7v5.876l1.547,1.08h7.266l1.544-1.7v-5.565Z" transform="translate(-118.308 -422.012)" fill="#e3f1f2"/>
      <path id="Path_281" data-name="Path 281" d="M254.717,544.576s-6.959,1.083-7.577,0l.154-.772,7.42-.154Z" transform="translate(-210.668 -537.922)" fill="#fff" opacity="0.2"/>
      <path id="Path_282" data-name="Path 282" d="M254.484,597.83l1.237,1.237v5.876l-1.237,1.237s-4.482,1.547-7.42.314l-1.394-1.39V599.22l1.237-1.39Z" transform="translate(-209.659 -575.096)" fill="#e3f1f2"/>
      <path id="Path_283" data-name="Path 283" d="M256.876,599.22s-5.411,1.237-7.266,0v-1.39h7.577Z" transform="translate(-212.363 -575.096)" fill="#fff" opacity="0.2"/>
      <path id="Path_284" data-name="Path 284" d="M258.64,568.982v8.365a1.256,1.256,0,0,1-1.315,1.18h0a1.256,1.256,0,0,1-1.315-1.186v-8.358a1.271,1.271,0,0,1,1.469-1.177h0A1.237,1.237,0,0,1,258.64,568.982Z" transform="translate(-216.754 -554.484)" fill="#e3f1f2"/>
      <path id="Path_285" data-name="Path 285" d="M201.164,428.49l-7.577.157-1.237,1.7v5.876L193.9,437.3h7.266l1.547-1.7v-5.565Z" transform="translate(-144.826 -422.526)" fill="#e3f1f2"/>
      <path id="Path_286" data-name="Path 286" d="M293.377,545.336s-6.959,1.083-7.577,0l.154-.772,7.42-.154Z" transform="translate(-237.193 -538.443)" fill="#fff" opacity="0.2"/>
      <path id="Path_287" data-name="Path 287" d="M293.14,598.576l1.237,1.237v5.876l-1.237,1.237s-4.482,1.547-7.42.314l-1.39-1.39V599.96l1.237-1.391Z" transform="translate(-236.185 -575.604)" fill="#e3f1f2"/>
      <path id="Path_288" data-name="Path 288" d="M295.536,599.96s-5.411,1.237-7.266,0V598.57h7.574Z" transform="translate(-238.888 -575.604)" fill="#fff" opacity="0.2"/>
      <path id="Path_289" data-name="Path 289" d="M297.25,569.742v8.365a1.255,1.255,0,0,1-1.315,1.186h0a1.255,1.255,0,0,1-1.315-1.186v-8.365a1.271,1.271,0,0,1,1.469-1.177h0A1.237,1.237,0,0,1,297.25,569.742Z" transform="translate(-243.245 -555.006)" fill="#e3f1f2"/>
    </g>
    <g id="Group_113" data-name="Group 113" transform="translate(29.354 176.859)" opacity="0.8">
      <path id="Path_290" data-name="Path 290" d="M190.943,703.892s-4.448-1.507-6.591,2.414a7.15,7.15,0,0,0,.094,6.883,10.106,10.106,0,0,0,9.793,5.549c4.658-.248,6.205-3.8,6.626-7.109a7.3,7.3,0,0,0-9.7-7.819Z" transform="translate(-183.515 -695.847)" fill="#e3f1f2"/>
      <path id="Path_291" data-name="Path 291" d="M185.39,713.248a7.15,7.15,0,0,1-.094-6.883c2.141-3.92,6.591-2.414,6.591-2.414l.229-.082a7.238,7.238,0,0,1,5.226.116,7.238,7.238,0,0,0-6.171-.59l-.229.082s-4.448-1.507-6.591,2.414a7.15,7.15,0,0,0,.094,6.883,10.835,10.835,0,0,0,5.022,4.761A11.026,11.026,0,0,1,185.39,713.248Z" transform="translate(-183.515 -695.558)" fill="#fff" opacity="0.1"/>
      <path id="Path_292" data-name="Path 292" d="M199.86,711s1.648,1.3,5.65,0" transform="translate(-194.73 -701.072)" opacity="0.2"/>
      <path id="Path_293" data-name="Path 293" d="M198.74,681s2.825,7.659,2.593,9.661l2.238-.235s-3.766-6.714-2.825-9.416Z" transform="translate(-193.961 -680.488)" fill="#e3f1f2"/>
      <path id="Path_294" data-name="Path 294" d="M198.74,681s2.825,7.659,2.593,9.661l2.238-.235s-3.766-6.714-2.825-9.416Z" transform="translate(-193.961 -680.488)" opacity="0.2"/>
      <path id="Path_295" data-name="Path 295" d="M216.4,680.509s-4.451-2.276-6.441-.4-2.3,6.685-2.3,6.685S214.917,687.8,216.4,680.509Z" transform="translate(-200.081 -679.369)" fill="#e3f1f2"/>
      <path id="Path_296" data-name="Path 296" d="M216.4,680.509s-4.451-2.276-6.441-.4-2.3,6.685-2.3,6.685S214.917,687.8,216.4,680.509Z" transform="translate(-200.081 -679.369)" fill="#fff" opacity="0.1"/>
      <path id="Path_297" data-name="Path 297" d="M207.66,689.277S208.828,683.7,216.4,683" transform="translate(-200.081 -681.86)" fill="none" stroke="#e3f1f2" stroke-miterlimit="10" stroke-width="1"/>
    </g>
    <path id="Path_298" data-name="Path 298" d="M250.763,725.982s-4.448-1.507-6.591,2.414a7.15,7.15,0,0,0,.094,6.883,10.106,10.106,0,0,0,9.793,5.549c4.658-.248,6.205-3.8,6.626-7.109a7.3,7.3,0,0,0-9.7-7.819Z" transform="translate(-195.205 -534.145)" fill="#e3f1f2"/>
    <path id="Path_299" data-name="Path 299" d="M245.24,735.348a7.15,7.15,0,0,1-.094-6.883c2.141-3.92,6.591-2.414,6.591-2.414l.229-.082a7.238,7.238,0,0,1,5.226.116,7.238,7.238,0,0,0-6.171-.59l-.229.082s-4.448-1.507-6.591,2.414a7.15,7.15,0,0,0,.094,6.883,10.836,10.836,0,0,0,5.022,4.761A11.026,11.026,0,0,1,245.24,735.348Z" transform="translate(-195.226 -533.863)" fill="#fff" opacity="0.1"/>
    <path id="Path_300" data-name="Path 300" d="M259.71,733.09s1.648,1.3,5.65,0" transform="translate(-206.441 -539.37)" opacity="0.2"/>
    <path id="Path_301" data-name="Path 301" d="M258.58,703.07s2.825,7.659,2.593,9.661l2.238-.235s-3.766-6.714-2.825-9.416Z" transform="translate(-205.665 -518.772)" fill="#e3f1f2"/>
    <path id="Path_302" data-name="Path 302" d="M258.58,703.07s2.825,7.659,2.593,9.661l2.238-.235s-3.766-6.714-2.825-9.416Z" transform="translate(-205.665 -518.772)" opacity="0.2"/>
    <path id="Path_303" data-name="Path 303" d="M276.248,702.609s-4.451-2.276-6.441-.4-2.3,6.686-2.3,6.686S274.767,709.9,276.248,702.609Z" transform="translate(-211.793 -517.674)" fill="#e3f1f2"/>
    <path id="Path_304" data-name="Path 304" d="M276.248,702.609s-4.451-2.276-6.441-.4-2.3,6.686-2.3,6.686S274.767,709.9,276.248,702.609Z" transform="translate(-211.793 -517.674)" fill="#fff" opacity="0.1"/>
    <path id="Path_305" data-name="Path 305" d="M267.51,711.417s1.168-5.578,8.738-6.277" transform="translate(-211.793 -520.192)" fill="none" stroke="#e3f1f2" stroke-miterlimit="10" stroke-width="1"/>
    <path id="Path_306" data-name="Path 306" d="M132.234,652.037s.436-.487-.383-.681v-.8h.493A4.225,4.225,0,0,0,129,646.425v-.97h.129V644.2h-3.17v1.255h.091v.982a4.225,4.225,0,0,0-3.289,4.118h.439v.769s-1.042.493,0,1.372.879,1.535.879,1.535-.439,1.645-1.315,1.864v15.3a3.4,3.4,0,0,0,3.4,3.4h2.687a3.4,3.4,0,0,0,3.387-3.4V656.1s-1.535-1.152-1.256-1.864a17.264,17.264,0,0,1,1.256-2.194Z" transform="translate(-112.458 -478.38)" fill="#e3f1f2"/>
  </g>
</svg>
