<svg id="Group_150" data-name="Group 150" xmlns="http://www.w3.org/2000/svg" width="424.568" height="231.68" viewBox="0 0 424.568 231.68">
  <path id="Path_336" data-name="Path 336" d="M473,261.688c-11.287-24.416-33.374-45.244-60.057-48.639-7.055-.9-14.421-.538-20.967,2.243-8.592,3.65-14.925,11.017-21.325,17.813a257.145,257.145,0,0,1-45.193,38.073c-8.133,5.384-16.855,10.408-26.511,11.785-19.359,2.762-38.508-10.44-47.337-27.889-5.515-10.9-8.064-23.7-12.522-35.034-5.135-.01-11.252-.008-17.834.022-18.192.084-33,.353-33,.353s17.6-23.315,32.934-14.677c4.9,2.76,10.032,5.224,14.748,7.3a41.269,41.269,0,0,0-10.709-13.52c-9.168-7.352-21.585-9.414-33.324-8.867-12.327.575-24.767,3.875-34.784,11.083-17.844,12.84-25.213,35.441-31.519,56.5l15.244,7.642c6.539-5.653,16.1-11.245,24.914-6.28A209.365,209.365,0,0,0,198.7,273.969s-14.688-.133-32.88-.049c-3.055.014-6.012.033-8.822.056l169.247,84.846c55.823.786,97.914-2.233,150.958,0,2.766.116,8.989-14.385,9.01-18.2C486.36,313.723,484.284,286.1,473,261.688Zm-54.2,7.318c-18.192.084-33,.353-33,.353s17.6-23.315,32.934-14.677a209.37,209.37,0,0,0,32.946,14.373s-14.688-.133-32.88-.049Z" transform="translate(-99.81 -176.715)" fill="#f2f2f2"/>
  <path id="Path_337" data-name="Path 337" d="M887.009,567.367c0-9.195-5.693-16.648-12.715-16.648-4.414,0-8.3,2.946-10.581,7.416a7.61,7.61,0,0,0-2.43-.4,8.278,8.278,0,0,0-5.693,2.4c-2.055-5.574-6.413-9.42-11.457-9.42-4.716,0-8.829,3.364-11.024,8.358a7.9,7.9,0,0,0-4.352-1.341c-5.389,0-9.758,5.72-9.758,12.776a15.694,15.694,0,0,0,1.537,6.88h63.908A20.129,20.129,0,0,0,887.009,567.367Z" transform="translate(-520.622 -395.284)" fill="#e3f1f2" opacity="0.3"/>
  <path id="Path_338" data-name="Path 338" d="M474.333,588.023H82v-.786H473.94Z" transform="translate(-49.764 -356.383)" fill="#68686e"/>
  <path id="Path_339" data-name="Path 339" d="M392.333,464.023H0v-.786H391.94Z" transform="translate(0 -281.13)" fill="#68686e"/>
  <path id="Path_340" data-name="Path 340" d="M483.63,414.8s2.471-18.12,6.589-13.178,0,12.355,0,12.355l-3.295,4.118-3.295-2.471Z" transform="translate(-317.093 -304.284)" fill="#ffb8b8"/>
  <path id="Path_341" data-name="Path 341" d="M454.673,439.381s8.237-9.06,9.884-7.413,6.589,2.471,5.766,5.766-18.12,14-18.12,14Z" transform="translate(-298.02 -323.095)" fill="#e3f1f2"/>
  <path id="Path_342" data-name="Path 342" d="M454.673,439.381s8.237-9.06,9.884-7.413,6.589,2.471,5.766,5.766-18.12,14-18.12,14Z" transform="translate(-298.02 -323.095)" fill="#a6aac6" opacity="0.1"/>
  <path id="Path_343" data-name="Path 343" d="M338.984,449.038v6.589s-.824,14.826,4.118,14,2.471-13.178,2.471-13.178l-.824-7.413Z" transform="translate(-229.279 -333.576)" fill="#ffb8b8"/>
  <path id="Path_344" data-name="Path 344" d="M285.588,570.557s-7.413,11.531-9.884,12.355-15.649,8.236-17.3,15.649l-11.531,14.826,5.766,7.413s26.357-28,33.77-30.475S301.237,575.5,301.237,575.5Z" transform="translate(-173.412 -407.324)" fill="#ffb8b8"/>
  <path id="Path_345" data-name="Path 345" d="M452.146,522.369s15.649,2.471,13.178,12.355S438.967,565.2,438.967,565.2l-.824,4.942-9.06,1.647-4.118-4.118.824-2.471s9.884-9.06,10.707-12.355,9.884-16.473,14-17.3l-5.766-3.295Z" transform="translate(-281.49 -378.079)" fill="#ffb8b8"/>
  <path id="Path_346" data-name="Path 346" d="M237.9,673.005s3.295-4.942-1.647-4.118-8.236,1.647-8.236,4.942,4.118,26.357,9.06,24.709.824-9.06.824-9.06,2.471-6.589,4.118-7.413,1.647-4.942,0-4.942S237.08,674.653,237.9,673.005Z" transform="translate(-161.968 -466.942)" fill="#494950"/>
  <path id="Path_347" data-name="Path 347" d="M420.849,630.587s0-4.118-3.295,0-4.942,7.413-1.647,9.884,14.826,8.237,14.826,8.237,12.355,2.471,10.707-3.295c0,0-8.236-4.118-8.236-7.413s0-9.06-2.471-7.413S420.849,633.058,420.849,630.587Z" transform="translate(-274.903 -442.643)" fill="#494950"/>
  <path id="Path_348" data-name="Path 348" d="M357.268,476.275s-11.531,1.647-10.707,18.12c0,0-14.826,14.826-10.707,19.767s13.178,14,16.473,11.531S365.5,504.279,365.5,504.279s23.062,8.236,27.18,4.118,8.236-14,8.236-14L380.33,483.688Z" transform="translate(-226.971 -350.106)" fill="#2f2e41"/>
  <circle id="Ellipse_65" data-name="Ellipse 65" cx="9.884" cy="9.884" r="9.884" transform="translate(152.535 59.454)" fill="#ffb8b8"/>
  <path id="Path_349" data-name="Path 349" d="M442.634,333.8s-5.766,9.06-7.413,9.884,11.531,9.06,11.531,9.06,0-10.707,4.118-13.178Z" transform="translate(-287.628 -263.643)" fill="#ffb8b8"/>
  <path id="Path_350" data-name="Path 350" d="M411.183,354.889S398,350.771,395.534,357.36s-8.237,18.944-7.413,27.18,2.471,6.589,0,9.06-4.118.824-3.295,4.118,1.647,3.295.824,4.942,9.884,7.413,18.944,8.236l9.06.824s0-14.826,1.647-18.12,4.942-9.884,4.942-12.355v-6.538a25.005,25.005,0,0,0-3.295-12.406h0S412.007,354.889,411.183,354.889Z" transform="translate(-257.001 -275.667)" fill="#cbcdda"/>
  <path id="Path_351" data-name="Path 351" d="M369.613,365.232s-30.475,2.471-33.77,10.707-4.942,24.709-1.647,24.709,7.413,1.647,8.236,0,4.118-18.12,4.942-18.12,25.533-2.471,25.533-2.471S383.615,366.879,369.613,365.232Z" transform="translate(-225.314 -282.716)" fill="#cbcdda"/>
  <path id="Path_352" data-name="Path 352" d="M456.471,311.905s2.623-4.558,5.9-.6,8.612-3.316,7.793-4.869-3.71.07-8.665-1.55-14.5-4.92-16.1,5.845,2.209,9.636,2.209,9.636,1.745-9.538,3.322-6.8l1.577,2.74,1.368.337Z" transform="translate(-293.655 -245.018)" fill="#2f2e41"/>
  <circle id="Ellipse_66" data-name="Ellipse 66" cx="12.059" cy="12.059" r="12.059" transform="translate(243.983 17.549)" fill="#2f2e41"/>
  <path id="Path_353" data-name="Path 353" d="M700.358,248.485s.624,11.232-.624,11.232,7.8,5.3,7.8,5.3l5.616-3.12v-3.744s-7.488-.936-4.368-9.048S700.358,248.485,700.358,248.485Z" transform="translate(-448.17 -209.952)" fill="#9f616a"/>
  <path id="Path_354" data-name="Path 354" d="M573.39,411.517l-.936,9.36,3.12.936,2.5-2.5.936-7.8Z" transform="translate(-347.411 -249.742)" fill="#9f616a"/>
  <path id="Path_355" data-name="Path 355" d="M689.124,421.156l1.56,5.928,4.368,2.808,4.68-2.5-5.3-8.736Z" transform="translate(-418.216 -254.077)" fill="#9f616a"/>
  <circle id="Ellipse_67" data-name="Ellipse 67" cx="9.048" cy="9.048" r="9.048" transform="translate(246.103 25.273)" fill="#9f616a"/>
  <path id="Path_356" data-name="Path 356" d="M685.49,299.366l-2.184-.936a8.848,8.848,0,0,1-4.056-6.552c-.312-4.368,3.12-9.984,3.12-9.984l4.992-1.56,5.865,4.774.063,7.706Z" transform="translate(-435.799 -231.192)" fill="#9f616a"/>
  <path id="Path_357" data-name="Path 357" d="M659.569,284.923l-1.248-.624s-6.24-.312-6.864,7.176-2.808,19.968-2.808,19.968-4.992,8.736-4.68,18.1l-2.5,8.112s-3.432,11.856.624,11.856,3.744-12.792,3.744-12.792,7.488-18.1,8.112-21.216,5.928-17.784,4.368-21.84S659.569,284.923,659.569,284.923Z" transform="translate(-412.061 -233.598)" fill="#9f616a"/>
  <path id="Path_358" data-name="Path 358" d="M700.54,335.89v3.432s2.184,2.5,1.248,4.056a27.21,27.21,0,0,0-1.872,4.68l4.368,6.864,14.664,1.248,2.916-19.538Z" transform="translate(-448.353 -264.909)" fill="#9f616a"/>
  <path id="Path_359" data-name="Path 359" d="M736.425,209.861l2.5-1.248s5.3-3.744,9.672-4.368L762.01,195.2l8.736-20.9s-.312-11.232,2.184-9.984,2.184,10.92,2.184,10.92-4.68,19.344-8.736,24.649-18.72,14.04-18.72,14.04-4.056,4.68-3.744,6.864S736.425,209.861,736.425,209.861Z" transform="translate(-470.509 -160.72)" fill="#9f616a"/>
  <path id="Path_360" data-name="Path 360" d="M660.988,365.866a3.893,3.893,0,0,0-5.616,1.56c-2.184,3.744-6.24,4.68-8.736,15.912s-8.424,29.017-9.984,30.265-8.112,14.352-4.368,32.761h6.24l5.3-26.521s17.16-21.216,18.409-29.953l5.616,32.761s.312,12.48,4.992,18.408l4.992,11.856,6.552-3.12L676.9,419.843s3.744-30.265,1.248-38.689l-.359-11.044S667.54,370.546,660.988,365.866Z" transform="translate(-406.616 -282.716)" fill="#2f2e41"/>
  <path id="Path_361" data-name="Path 361" d="M628.465,584.335h-3.744c-.624,0-5.616,4.056-3.432,6.24s5.616,6.24,5.616,6.24,12.168,1.548,12.48-.636-5.3-6.852-5.3-6.852l-1.56-4.992S629.4,580.9,628.465,584.335Z" transform="translate(-400.302 -414.759)" fill="#2f2e41"/>
  <path id="Path_362" data-name="Path 362" d="M754.662,591.781a59.578,59.578,0,0,1-6.24-.624c-.936-.312-2.808,8.112,0,8.736s14.352,1.56,14.352,1.56,9.048-.312,8.424-2.808-12.792-7.488-12.792-7.488S756.846,588.037,754.662,591.781Z" transform="translate(-476.89 -419.086)" fill="#2f2e41"/>
  <path id="Path_363" data-name="Path 363" d="M695.215,276.65l-1.56-.936-1.872,1.56s5.616,3.744,4.368,7.176-6.552,10.608-6.552,10.608,4.68,5.3,4.68,7.176c0,0,12.168-4.368,21.216,0,0,0,0-6.24,1.248-7.488s1.872-5.616-1.248-9.36a68.409,68.409,0,0,1-5.928-8.736l-3.12-1.872-1.607.51s3.167,3.546.047,3.858S696.775,278.522,695.215,276.65Z" transform="translate(-442.091 -227.821)" fill="#cbcdda"/>
  <path id="Path_364" data-name="Path 364" d="M725.28,178.347a6.592,6.592,0,0,1-4.089,2.142c-2.726.389-.584,4.673-.584,4.673a2.461,2.461,0,0,1,.779-2.92C722.943,180.878,725.28,180.1,725.28,178.347Z" transform="translate(-460.424 -169.299)" fill="#2f2e41"/>
  <circle id="Ellipse_68" data-name="Ellipse 68" cx="3.361" cy="3.361" r="3.361" transform="translate(256.24 13.397)" fill="#2f2e41"/>
  <path id="Path_365" data-name="Path 365" d="M715.774,199.211a23.793,23.793,0,0,0-9.435-2.346l.6-2.295a18.437,18.437,0,0,0,9.436,2.346Z" transform="translate(-452.25 -179.144)" fill="#e3f1f2"/>
  <path id="Path_366" data-name="Path 366" d="M691.336,206.89a19.787,19.787,0,0,1-12.273,6.429c-8.182,1.169-1.753,14.027-1.753,14.027s-2.338-4.676,2.338-8.767S691.336,212.15,691.336,206.89Z" transform="translate(-433.176 -186.621)" fill="#2f2e41"/>
  <path id="Path_367" data-name="Path 367" d="M717.14,206.1s2.338,8.182,5.845,9.351,1.753,13.442-4.091,14.611c0,0,4.968-6.721,2.046-11.981S716.264,208.726,717.14,206.1Z" transform="translate(-458.668 -186.139)" fill="#2f2e41"/>
  <rect id="Rectangle_196" data-name="Rectangle 196" width="21.528" height="2.496" transform="translate(291.968 6.24)" fill="#2f2e41"/>
  <ellipse id="Ellipse_69" data-name="Ellipse 69" cx="1.872" cy="7.488" rx="1.872" ry="7.488" transform="translate(311.625 0)" fill="#2f2e41"/>
  <ellipse id="Ellipse_70" data-name="Ellipse 70" cx="1.872" cy="7.488" rx="1.872" ry="7.488" transform="translate(290.096 0)" fill="#2f2e41"/>
  <rect id="Rectangle_197" data-name="Rectangle 197" width="21.528" height="2.496" transform="translate(302.889 174.106)" fill="#2f2e41"/>
  <ellipse id="Ellipse_71" data-name="Ellipse 71" cx="1.872" cy="7.488" rx="1.872" ry="7.488" transform="translate(322.545 167.866)" fill="#2f2e41"/>
  <ellipse id="Ellipse_72" data-name="Ellipse 72" cx="1.872" cy="7.488" rx="1.872" ry="7.488" transform="translate(301.017 167.866)" fill="#2f2e41"/>
  <path id="Path_368" data-name="Path 368" d="M149.009,567.367c0-9.195-5.693-16.648-12.715-16.648-4.414,0-8.3,2.946-10.581,7.416a7.609,7.609,0,0,0-2.43-.4,8.278,8.278,0,0,0-5.693,2.4c-2.055-5.574-6.413-9.42-11.457-9.42-4.716,0-8.829,3.364-11.024,8.358a7.9,7.9,0,0,0-4.352-1.341c-5.389,0-9.758,5.72-9.758,12.776a15.7,15.7,0,0,0,1.537,6.88h63.908A20.128,20.128,0,0,0,149.009,567.367Z" transform="translate(-72.744 -395.284)" fill="#e3f1f2" opacity="0.3"/>
</svg>
