<svg id="Group_106" data-name="Group 106" xmlns="http://www.w3.org/2000/svg" width="262.228" height="285.681" viewBox="0 0 262.228 285.681">
  <path id="Path_160" data-name="Path 160" d="M489.558,766.334c0,8.671-58.7,28.429-131.114,28.429S227.331,775,227.331,766.334s58.7-2.97,131.114-2.97S489.558,757.663,489.558,766.334Z" transform="translate(-227.331 -509.083)" fill="#3f3d56"/>
  <path id="Path_161" data-name="Path 161" d="M489.558,766.334c0,8.671-58.7,28.429-131.114,28.429S227.331,775,227.331,766.334s58.7-2.97,131.114-2.97S489.558,757.663,489.558,766.334Z" transform="translate(-227.331 -509.083)" opacity="0.1"/>
  <circle id="Ellipse_42" data-name="Ellipse 42" cx="5.516" cy="5.516" r="5.516" transform="translate(31.824 130.805)" fill="#e3f1f2"/>
  <circle id="Ellipse_43" data-name="Ellipse 43" cx="5.516" cy="5.516" r="5.516" transform="translate(56.01 176.207)" fill="#e3f1f2"/>
  <circle id="Ellipse_44" data-name="Ellipse 44" cx="5.516" cy="5.516" r="5.516" transform="translate(37.34 164.751)" fill="#e3f1f2"/>
  <path id="Path_162" data-name="Path 162" d="M347.792,551.137c-.1-.159-2.393-3.993-3.189-11.954-.73-7.3-.261-19.615,6.124-36.787,12.1-32.533-2.787-58.782-2.94-59.043l.734-.426a65.16,65.16,0,0,1,6.148,17.416,75.979,75.979,0,0,1-3.147,42.35c-12.075,32.477-3.1,47.852-3.006,48Z" transform="translate(-303.177 -302.575)" fill="#cfcce0"/>
  <path id="Path_163" data-name="Path 163" d="M329.755,418.025a5.94,5.94,0,1,1,5.94-5.94,5.94,5.94,0,0,1-5.94,5.94Zm0-11.032a5.092,5.092,0,1,0,5.092,5.092A5.092,5.092,0,0,0,329.755,406.993Z" transform="translate(-289.87 -278.733)" fill="#cfcce0"/>
  <circle id="Ellipse_45" data-name="Ellipse 45" cx="5.516" cy="5.516" r="5.516" transform="translate(51.767 148.202)" fill="#cfcce0"/>
  <path id="Path_164" data-name="Path 164" d="M345.434,514.509a5.94,5.94,0,1,1,5.94-5.94,5.94,5.94,0,0,1-5.94,5.94Zm0-11.032a5.092,5.092,0,1,0,5.092,5.092A5.092,5.092,0,0,0,345.434,503.477Z" transform="translate(-300.032 -341.272)" fill="#cfcce0"/>
  <path id="Path_165" data-name="Path 165" d="M386.44,547.072a5.94,5.94,0,1,1,5.94-5.94A5.94,5.94,0,0,1,386.44,547.072Zm0-11.032a5.092,5.092,0,1,0,5.092,5.092A5.092,5.092,0,0,0,386.44,536.04Z" transform="translate(-326.611 -362.379)" fill="#cfcce0"/>
  <circle id="Ellipse_46" data-name="Ellipse 46" cx="5.516" cy="5.516" r="5.516" transform="translate(35.643 191.058)" fill="#cfcce0"/>
  <path id="Path_166" data-name="Path 166" d="M361.989,707.3s-5.516-13.578,11.032-23.762Z" transform="translate(-314.041 -458.532)" fill="#cfcce0"/>
  <path id="Path_167" data-name="Path 167" d="M303.91,724s-2.51-14.439-21.941-14.315Z" transform="translate(-262.746 -475.479)" fill="#cfcce0"/>
  <path id="Path_168" data-name="Path 168" d="M737.161,679.141h-93.89s-1.9-27.913,9.357-28.23,9.992,12.371,24.107-5.075,31.244-16.494,33.464-6.185-4.282,18.556,7.613,16.018S746.835,659.792,737.161,679.141Z" transform="translate(-496.855 -425.284)" fill="#e3f1f2"/>
  <path id="Path_169" data-name="Path 169" d="M771.839,678.846l-.317-.013c.739-18.378,4.588-30.186,7.687-36.855,3.365-7.242,6.607-10.173,6.639-10.2l.211.237c-.032.029-3.236,2.931-6.574,10.124C776.4,648.778,772.576,660.537,771.839,678.846Z" transform="translate(-580.063 -424.983)" fill="#f2f2f2"/>
  <path id="Path_170" data-name="Path 170" d="M868.448,727.538l-.3-.089a49.2,49.2,0,0,1,12.388-20.61l.213.235A48.869,48.869,0,0,0,868.448,727.538Z" transform="translate(-642.691 -473.637)" fill="#f2f2f2"/>
  <path id="Path_171" data-name="Path 171" d="M670.189,714.721l-.314-.044a34.546,34.546,0,0,0-3.107-20.192,27.8,27.8,0,0,0-4.9-7.156l.219-.229a28.149,28.149,0,0,1,4.969,7.244A34.863,34.863,0,0,1,670.189,714.721Z" transform="translate(-508.985 -460.842)" fill="#f2f2f2"/>
  <path id="Path_172" data-name="Path 172" d="M731.12,658.377H614.361l-.027-.4c-.067-.984-1.557-24.193,5.963-32.474a8.236,8.236,0,0,1,6.019-2.888c4.9-.139,7.982,1.7,10.467,3.17,4.683,2.778,7.777,4.614,19.025-9.289,12.185-15.061,25.333-18.3,32.891-16.5,4.883,1.164,8.249,4.455,9.234,9.029a40.063,40.063,0,0,1,.4,11.669c-.255,3.5-.457,6.262.98,7.514,1.2,1.045,3.594,1.14,7.534.3,8.015-1.71,19.2-.247,24.81,7.006,3.02,3.9,5.4,10.994-.416,22.624Zm-115.963-.849H730.595c4.333-8.792,4.469-16.219.388-21.491-5.149-6.653-15.952-8.4-23.962-6.7-4.281.913-6.832.763-8.268-.489-1.757-1.531-1.541-4.481-1.269-8.215a39.357,39.357,0,0,0-.38-11.429,10.911,10.911,0,0,0-8.6-8.381c-7.317-1.746-20.1,1.454-32.035,16.207-11.709,14.472-15.237,12.381-20.118,9.485-2.515-1.492-5.371-3.184-10.01-3.052a7.418,7.418,0,0,0-5.415,2.61C614.167,633.521,614.992,654.391,615.157,657.528Z" transform="translate(-478.071 -404.096)" fill="#cfcce0"/>
  <ellipse id="Ellipse_47" data-name="Ellipse 47" cx="131.114" cy="15.7" rx="131.114" ry="15.7" transform="translate(0 241.552)" fill="#3f3d56"/>
  <path id="Path_173" data-name="Path 173" d="M568.516,188.468s-6.555-2.341-10.769,7.023a184.654,184.654,0,0,1-10.769,19.664l3.746.936s.936-6.555,3.277-7.491l-.936,8.428s28.092,9.832,40.733-.936l-.468-3.277s1.873.468,1.873,3.277l1.4-1.4a25.162,25.162,0,0,0-5.618-6.555c-2.766-2.458-3.716-7.136-4.043-10.06a12.173,12.173,0,0,0-2.8-6.629C581.344,188.2,576.241,184.748,568.516,188.468Z" transform="translate(-434.519 -136.596)" fill="#2f2e41"/>
  <path id="Path_174" data-name="Path 174" d="M549.456,181.6l-6.789-8.486-5.092-17.4,19.518-20.791s4.243-16.124.424-15.275-4.668,12.729-4.668,12.729l-24.61,19.094S530.786,178.2,538,187.539l5.516,17.4Z" transform="translate(-422.373 -93.012)" fill="#fdc2cc"/>
  <path id="Path_175" data-name="Path 175" d="M623.819,181.6l6.789-8.486,5.092-17.4-19.518-20.791s-4.243-16.124-.424-15.275,4.667,12.729,4.667,12.729l24.61,19.094s-2.546,26.732-9.759,36.067l-5.516,17.4Z" transform="translate(-478.067 -93.012)" fill="#fdc2cc"/>
  <path id="Path_227" data-name="Path 227" d="M11.032,0A11.032,11.032,0,1,1,0,11.032,11.032,11.032,0,0,1,11.032,0Z" transform="translate(125.385 59.308)" fill="#fdc2cc"/>
  <path id="Path_176" data-name="Path 176" d="M592.81,260.815s.424,8.911-2.122,11.881-5.092,18.246,7.213,18.67,11.032-12.729,11.032-12.729l-2.546-7.213s-3.819-5.516-2.546-10.608Z" transform="translate(-461.485 -184.535)" fill="#fdc2cc"/>
  <path id="Path_177" data-name="Path 177" d="M565.694,541.824l9.123,2.758s7.425-4.455,7.425-.212-2.546,9.759-1.7,13.578,2.546,13.154,0,13.154-7.638-16.548-7.638-16.548l-8.486-4.667Z" transform="translate(-445.825 -366.678)" fill="#fdc2cc"/>
  <path id="Path_178" data-name="Path 178" d="M591.917,710.671l-3.395,13.154s-2.97,3.819,0,5.516a8.62,8.62,0,0,1,3.1,3.947,7.257,7.257,0,0,0,7.126,4.311c1.448-.12,2.668-.693,2.965-2.181a3.414,3.414,0,0,0-.657-2.674,22.922,22.922,0,0,1-3.84-7.01l1.273-14.851Z" transform="translate(-460.591 -476.121)" fill="#fdc2cc"/>
  <path id="Path_179" data-name="Path 179" d="M576.387,221.034s3.746-5.15,7.023-6.087,3.746-5.618,3.746-5.618,8.428,9.364,13.578,9.832.468-11.237.468-11.237l-9.364-2.341-8.9.936-7.023,4.682Z" transform="translate(-453.277 -148.735)" fill="#2f2e41"/>
  <path id="Path_180" data-name="Path 180" d="M484.118,441.846l-1.7,3.395s-41.159,13.154-37.764,25.459,22.489,8.911,22.489,8.911l21.216,3.819,2.122-9.335-14.851-3.819,25.459-9.335.849,43.28L498.544,535.2l8.486.849s9.335-28.429,8.062-40.31c0,0,15.7-48.372,6.789-55.585S484.118,441.846,484.118,441.846Z" transform="translate(-368.067 -298.947)" fill="#2f2e41"/>
  <path id="Path_181" data-name="Path 181" d="M574.923,295.764l-6.621-8-4.484,2.055-4.667,14.851A15.769,15.769,0,0,0,560,319.52s.849,5.092-.424,6.365-1.7,9.335-1.7,9.335l-5.516,10.608s31.4,5.516,40.734-2.122c0,0-4.9-18.06-1.928-23.576s3.395-13.972,0-17.791-6.982-13.794-6.982-13.794l-2.055-1.314Z" transform="translate(-438.008 -201.657)" fill="#cfcce0"/>
  <path id="Path_182" data-name="Path 182" d="M443.839,79.923h-4.07v-4.07h-.37v4.07h-4.07v.37h4.07v4.07h.37v-4.07h4.07Z" transform="translate(-282.171 -49.166)" fill="#cfcce0"/>
  <path id="Path_183" data-name="Path 183" d="M333.907,55.738h-4.07v-4.07h-.37v4.07H325.4v.37h4.07v4.07h.37v-4.07h4.07Z" transform="translate(-210.915 -33.49)" fill="#cfcce0"/>
  <path id="Path_184" data-name="Path 184" d="M386.674,4.07H382.6V0h-.37V4.07h-4.07v.37h4.07v4.07h.37V4.439h4.069Z" transform="translate(-245.118)" fill="#cfcce0"/>
</svg>
