<svg xmlns="http://www.w3.org/2000/svg" width="919" height="662.073" viewBox="0 0 919 662.073">
  <defs>
    <style>
      .cls-1 {
        fill: #f2f2f2;
      }

      .cls-2 {
        fill: #6c63ff;
      }

      .cls-3 {
        fill: #3f3d56;
      }

      .cls-4 {
        fill: #fff;
      }

      .cls-5 {
        fill: #f0f0f0;
      }

      .cls-6 {
        fill: #2f2e41;
      }

      .cls-7 {
        fill: #e6e6e6;
      }

      .cls-8 {
        opacity: 0.1;
      }

      .cls-9 {
        fill: #d0cde1;
        opacity: 0.5;
      }

      .cls-10 {
        fill: #ffb8b8;
      }
    </style>
  </defs>
  <g id="Group_77" data-name="Group 77" transform="translate(0.036)">
    <rect id="Rectangle_84" data-name="Rectangle 84" class="cls-1" width="113" transform="translate(618.964 530.036)"/>
    <rect id="Rectangle_85" data-name="Rectangle 85" class="cls-1" width="1.611" height="14.9" transform="translate(699.894 530.36)"/>
    <rect id="Rectangle_86" data-name="Rectangle 86" class="cls-1" width="1.611" height="14.9" transform="translate(650.764 530.36)"/>
    <rect id="Rectangle_87" data-name="Rectangle 87" class="cls-1" width="113" height="1" transform="translate(664.964 589.036)"/>
    <rect id="Rectangle_88" data-name="Rectangle 88" class="cls-1" width="1.611" height="14.9" transform="translate(695.867 574.254)"/>
    <rect id="Rectangle_89" data-name="Rectangle 89" class="cls-1" width="1.611" height="14.9" transform="translate(744.997 574.254)"/>
    <rect id="Rectangle_90" data-name="Rectangle 90" class="cls-1" width="113" height="1" transform="translate(-0.036 212.036)"/>
    <rect id="Rectangle_91" data-name="Rectangle 91" class="cls-1" width="1.611" height="14.9" transform="translate(30.602 197.324)"/>
    <rect id="Rectangle_92" data-name="Rectangle 92" class="cls-1" width="1.611" height="14.9" transform="translate(79.732 197.324)"/>
    <rect id="Rectangle_93" data-name="Rectangle 93" class="cls-1" width="113" height="1" transform="translate(-0.036 330.036)"/>
    <rect id="Rectangle_94" data-name="Rectangle 94" class="cls-1" width="1.611" height="14.9" transform="translate(80.537 330.619)"/>
    <rect id="Rectangle_95" data-name="Rectangle 95" class="cls-1" width="1.611" height="14.9" transform="translate(31.407 330.619)"/>
    <rect id="Rectangle_96" data-name="Rectangle 96" class="cls-1" width="113" height="1" transform="translate(618.964 39.036)"/>
    <rect id="Rectangle_97" data-name="Rectangle 97" class="cls-1" width="1.611" height="14.9" transform="translate(649.153 24.162)"/>
    <rect id="Rectangle_98" data-name="Rectangle 98" class="cls-1" width="1.611" height="14.9" transform="translate(698.283 24.162)"/>
    <rect id="Rectangle_99" data-name="Rectangle 99" class="cls-1" width="113" height="2" transform="translate(805.964 125.036)"/>
    <rect id="Rectangle_100" data-name="Rectangle 100" class="cls-1" width="1.611" height="14.9" transform="translate(836.813 110.341)"/>
    <rect id="Rectangle_101" data-name="Rectangle 101" class="cls-1" width="1.611" height="14.9" transform="translate(885.943 110.341)"/>
    <rect id="Rectangle_102" data-name="Rectangle 102" class="cls-1" width="112" height="1" transform="translate(758.964 330.036)"/>
    <rect id="Rectangle_103" data-name="Rectangle 103" class="cls-1" width="1.611" height="14.9" transform="translate(789.294 315.719)"/>
    <rect id="Rectangle_104" data-name="Rectangle 104" class="cls-1" width="1.611" height="14.9" transform="translate(838.424 315.719)"/>
    <rect id="Rectangle_105" data-name="Rectangle 105" class="cls-1" width="113" height="2" transform="translate(73.964 22.036)"/>
    <rect id="Rectangle_106" data-name="Rectangle 106" class="cls-1" width="1.611" height="14.9" transform="translate(104.699 8.054)"/>
    <rect id="Rectangle_107" data-name="Rectangle 107" class="cls-1" width="1.611" height="14.9" transform="translate(153.829 8.054)"/>
    <rect id="Rectangle_108" data-name="Rectangle 108" class="cls-1" width="112" height="1" transform="translate(392.964 65.036)"/>
    <rect id="Rectangle_109" data-name="Rectangle 109" class="cls-1" width="1.611" height="14.9" transform="translate(423.64 49.935)"/>
    <rect id="Rectangle_110" data-name="Rectangle 110" class="cls-1" width="1.611" height="14.9" transform="translate(472.77 49.935)"/>
    <rect id="Rectangle_111" data-name="Rectangle 111" class="cls-1" width="112" height="2" transform="translate(447.964 14.036)"/>
    <rect id="Rectangle_112" data-name="Rectangle 112" class="cls-1" width="1.611" height="14.9" transform="translate(478.407)"/>
    <rect id="Rectangle_113" data-name="Rectangle 113" class="cls-1" width="1.611" height="14.9" transform="translate(527.537)"/>
    <rect id="Rectangle_114" data-name="Rectangle 114" class="cls-1" width="112" height="1" transform="translate(686.964 65.036)"/>
    <rect id="Rectangle_115" data-name="Rectangle 115" class="cls-1" width="1.611" height="14.9" transform="translate(766.743 65.641)"/>
    <rect id="Rectangle_116" data-name="Rectangle 116" class="cls-1" width="1.611" height="14.9" transform="translate(717.613 65.641)"/>
    <rect id="Rectangle_117" data-name="Rectangle 117" class="cls-1" width="112" height="1" transform="translate(749.964 218.036)"/>
    <rect id="Rectangle_118" data-name="Rectangle 118" class="cls-1" width="1.611" height="14.9" transform="translate(830.37 218.668)"/>
    <rect id="Rectangle_119" data-name="Rectangle 119" class="cls-1" width="1.611" height="14.9" transform="translate(781.24 218.668)"/>
    <rect id="Rectangle_120" data-name="Rectangle 120" class="cls-1" width="112" height="2" transform="translate(222.964 32.036)"/>
    <rect id="Rectangle_121" data-name="Rectangle 121" class="cls-1" width="1.611" height="14.9" transform="translate(302.829 33.424)"/>
    <rect id="Rectangle_122" data-name="Rectangle 122" class="cls-1" width="1.611" height="14.9" transform="translate(253.699 33.424)"/>
    <path id="Path_106" data-name="Path 106" class="cls-2" d="M152.251,140.339V263.963s188.526-35.147,306.755,15.979S740.2,301.311,740.2,301.311V140.339Z" transform="translate(-53.39 -58.705)"/>
    <path id="Path_107" data-name="Path 107" class="cls-2" d="M464.332,363.134c-84.677-33.551-312.08-19.524-312.08-19.524V477.562H740.2v-93.18S549.009,396.685,464.332,363.134Z" transform="translate(-53.39 -97.695)"/>
    <rect id="Rectangle_123" data-name="Rectangle 123" class="cls-3" width="1.065" height="39.628" transform="translate(642.683 339.789)"/>
    <circle id="Ellipse_24" data-name="Ellipse 24" class="cls-3" cx="5.604" cy="5.604" r="5.604" transform="translate(637.612 334.185)"/>
    <path id="Path_108" data-name="Path 108" class="cls-3" d="M823.97,487.476s-.8-17.219-17.212-15.217" transform="translate(-180.753 -123.263)"/>
    <path id="Path_109" data-name="Path 109" class="cls-4" d="M191.3,480.956c3.234,11.956,14.313,19.361,14.313,19.361s5.834-11.98,2.6-23.936S193.9,457.02,193.9,457.02,188.064,469,191.3,480.956Z" transform="translate(-60.799 -120.33)"/>
    <path id="Path_110" data-name="Path 110" class="cls-3" d="M192.076,481.286c8.875,8.639,9.959,21.92,9.959,21.92s-13.305-.726-22.18-9.366-9.959-21.92-9.959-21.92S183.2,472.646,192.076,481.286Z" transform="translate(-56.824 -123.229)"/>
    <path id="Path_111" data-name="Path 111" class="cls-4" d="M485.545,448.422c-6.751,24.956-29.875,40.412-29.875,40.412s-12.178-25.006-5.427-49.962,29.875-40.412,29.875-40.412S492.3,423.466,485.545,448.422Z" transform="translate(-110.981 -108.934)"/>
    <path id="Path_112" data-name="Path 112" class="cls-4" d="M417.82,448.422c6.751,24.956,29.875,40.412,29.875,40.412s12.178-25.006,5.427-49.962-29.875-40.412-29.875-40.412S411.069,423.466,417.82,448.422Z" transform="translate(-104.672 -108.934)"/>
    <path id="Path_113" data-name="Path 113" class="cls-3" d="M419.444,449.11c18.525,18.033,20.788,45.755,20.788,45.755s-27.772-1.516-46.3-19.55-20.788-45.755-20.788-45.755S400.919,431.077,419.444,449.11Z" transform="translate(-96.375 -114.986)"/>
    <path id="Path_114" data-name="Path 114" class="cls-3" d="M477.228,449.11c-18.525,18.033-20.788,45.755-20.788,45.755s27.772-1.516,46.3-19.55,20.788-45.755,20.788-45.755S495.753,431.077,477.228,449.11Z" transform="translate(-112.584 -114.986)"/>
    <path id="Path_115" data-name="Path 115" class="cls-5" d="M574.01,507.72a6.391,6.391,0,1,1,6.391-6.391,6.391,6.391,0,0,1-6.391,6.391Zm0-11.716a5.326,5.326,0,1,0,5.326,5.326A5.326,5.326,0,0,0,574.01,496Z" transform="translate(-134.218 -127.708)"/>
    <path id="Path_116" data-name="Path 116" class="cls-3" d="M765.106,384.731a6.391,6.391,0,1,1,6.391-6.391A6.391,6.391,0,0,1,765.106,384.731Zm0-11.716a5.326,5.326,0,1,0,5.326,5.326,5.326,5.326,0,0,0-5.326-5.326Z" transform="translate(-171.405 -103.775)"/>
    <path id="Path_117" data-name="Path 117" class="cls-3" d="M224.431,378.2H213.917V367.684h10.513Zm-9.7-.809h8.9v-8.9h-8.9Z" transform="translate(-65.39 -102.945)"/>
    <path id="Path_118" data-name="Path 118" class="cls-3" d="M412.22,323.315H401.707V312.8H412.22Zm-9.7-.809h8.9v-8.9h-8.9Z" transform="translate(-101.933 -92.266)"/>
    <circle id="Ellipse_25" data-name="Ellipse 25" class="cls-5" cx="5.367" cy="5.367" r="5.367" transform="translate(582.016 359.033)"/>
    <path id="Path_119" data-name="Path 119" class="cls-6" d="M755.06,503.184a15.506,15.506,0,1,1,15.506-15.506A15.506,15.506,0,0,1,755.06,503.184Zm0-29.819a14.313,14.313,0,1,0,14.313,14.313,14.313,14.313,0,0,0-14.313-14.313Z" transform="translate(-167.676 -123.278)"/>
    <path id="Path_120" data-name="Path 120" class="cls-7" d="M612.177,311.7c.512.5,1.041.994,1.573,1.477l-.486.535c-.538-.489-1.073-.991-1.591-1.494Z" transform="translate(-142.791 -92.051)"/>
    <path id="Path_121" data-name="Path 121" class="cls-7" d="M695.12,191.843c.72.654,1.431,1.329,2.114,2.008l-.51.513c-1.022-1.016-2.1-2.019-3.2-2.968l.474-.546Q694.564,191.338,695.12,191.843Zm-4.548-3.771-.436.577c-1.158-.874-2.359-1.718-3.569-2.508l.4-.606C688.187,186.335,689.4,187.188,690.572,188.072Zm9.684,8.991c.968,1.1,1.909,2.25,2.8,3.412l-.575.439c-.877-1.148-1.807-2.283-2.765-3.373Zm-17.067-13.81-.353.632c-1.264-.706-2.569-1.378-3.879-1.995l.308-.654C680.59,181.86,681.91,182.539,683.189,183.253Zm22.418,20.818c.806,1.222,1.58,2.489,2.3,3.764l-.629.356c-.713-1.262-1.478-2.514-2.275-3.722Zm-30.4-24.577-.262.674c-1.349-.525-2.733-1.01-4.112-1.44l.216-.69c1.4.436,2.794.925,4.159,1.456Zm34.735,32.261c.632,1.325,1.225,2.688,1.762,4.05l-.673.266c-.531-1.347-1.117-2.694-1.742-4ZM666.8,176.87l-.168.7c-1.409-.335-2.846-.626-4.273-.863l.119-.714c1.443.24,2.9.534,4.322.873Zm46.385,43.1c.444,1.4.844,2.829,1.19,4.251l-.7.171c-.342-1.406-.738-2.821-1.176-4.2Zm-55.079-44.545-.07.72c-1.442-.14-2.906-.232-4.353-.273l.02-.723C655.17,175.186,656.651,175.279,658.109,175.421Zm57.165,53.119c.248,1.443.45,2.914.6,4.372l-.719.074c-.148-1.442-.347-2.9-.593-4.323Zm-65.979-53.371.029.723c-1.447.057-2.911.165-4.351.321l-.077-.719c1.456-.157,2.937-.266,4.4-.324Zm66.878,62.145c.05,1.465.049,2.949,0,4.412l-.723-.025c.05-1.446.05-2.914,0-4.362Zm-75.647-61.2.126.712c-1.425.253-2.861.559-4.268.91l-.175-.7c1.423-.355,2.876-.664,4.317-.92Zm75.345,70.009c-.15,1.457-.352,2.927-.6,4.369l-.713-.123c.246-1.425.446-2.879.594-4.32Zm-83.907-67.875.223.688c-1.38.446-2.761.946-4.106,1.486l-.269-.671C629.171,179.209,630.568,178.7,631.964,178.252Zm82.409,76.56c-.347,1.422-.748,2.85-1.192,4.244l-.689-.219c.438-1.378.835-2.79,1.178-4.2Zm-90.6-73.272.315.651c-1.306.632-2.606,1.317-3.864,2.038l-.359-.628c1.273-.729,2.588-1.422,3.908-2.061ZM711.7,263.206c-.539,1.362-1.133,2.723-1.765,4.044l-.653-.312c.624-1.306,1.211-2.651,1.745-4Zm-95.589-77.282.4.6c-1.2.8-2.4,1.661-3.542,2.546l-.442-.572C613.688,187.6,614.893,186.738,616.111,185.924ZM707.9,271.161c-.721,1.274-1.5,2.54-2.3,3.762l-.6-.4c.8-1.208,1.565-2.46,2.278-3.719Zm-98.762-79.847.48.541c-1.081.96-2.144,1.972-3.16,3.007l-.516-.507C606.965,193.309,608.041,192.286,609.134,191.314Zm93.9,87.2c-.888,1.162-1.829,2.31-2.8,3.412l-.544-.477c.957-1.09,1.887-2.225,2.764-3.374ZM603.5,198.076c-.944,1.1-1.862,2.246-2.727,3.4l-.579-.432c.875-1.172,1.8-2.33,2.757-3.443Zm-5.215,6.987c-.786,1.219-1.538,2.479-2.236,3.745l-.633-.349c.706-1.281,1.466-2.555,2.261-3.788Zm-4.208,7.636c-.609,1.312-1.18,2.662-1.7,4.013l-.675-.259c.523-1.366,1.1-2.731,1.717-4.058Zm-3.114,8.134c-.424,1.385-.8,2.8-1.131,4.21l-.7-.163c.331-1.424.715-2.857,1.144-4.258ZM589,229.322c-.23,1.432-.413,2.888-.545,4.327l-.72-.066c.133-1.456.318-2.928.551-4.376ZM588.2,238c-.033,1.448-.017,2.915.048,4.362l-.722.033c-.066-1.464-.082-2.948-.049-4.412Zm.394,8.712c.164,1.441.38,2.893.641,4.317l-.711.131c-.264-1.439-.482-2.908-.648-4.365Zm1.575,8.58c.359,1.406.771,2.816,1.224,4.19l-.687.227c-.458-1.39-.875-2.816-1.238-4.238Zm2.734,8.287c.548,1.343,1.149,2.683,1.788,3.984l-.649.319c-.646-1.315-1.254-2.671-1.808-4.029Zm3.846,7.835c.727,1.253,1.506,2.5,2.317,3.7l-.6.405c-.821-1.213-1.609-2.471-2.344-3.738Zm4.884,7.223c.891,1.14,1.834,2.264,2.8,3.342l-.538.483c-.98-1.09-1.933-2.228-2.835-3.38Z" transform="translate(-138.08 -65.478)"/>
    <path id="Path_122" data-name="Path 122" class="cls-7" d="M722.635,311.18l.509.513c-.518.514-1.048,1.023-1.574,1.511l-.492-.53C721.6,312.192,722.122,311.689,722.635,311.18Z" transform="translate(-164.081 -91.95)"/>
    <path id="Path_123" data-name="Path 123" class="cls-3" d="M672.38,472.395c-.141-.23-3.453-5.761-4.6-17.248-1.053-10.539-.376-28.3,8.836-53.081,17.453-46.942-4.022-84.818-4.242-85.195l1.06-.615c.056.1,5.6,9.752,8.87,25.129a109.63,109.63,0,0,1-4.54,61.107c-17.423,46.862-4.47,69.046-4.337,69.265Z" transform="translate(-153.636 -92.938)"/>
    <circle id="Ellipse_26" data-name="Ellipse 26" class="cls-4" cx="7.959" cy="7.959" r="7.959" transform="translate(503.96 205.258)"/>
    <circle id="Ellipse_27" data-name="Ellipse 27" class="cls-3" cx="7.959" cy="7.959" r="7.959" transform="translate(529.062 234.646)"/>
    <circle id="Ellipse_28" data-name="Ellipse 28" class="cls-3" cx="7.959" cy="7.959" r="7.959" transform="translate(511.919 254.238)"/>
    <circle id="Ellipse_29" data-name="Ellipse 29" class="cls-3" cx="7.959" cy="7.959" r="7.959" transform="translate(532.736 270.769)"/>
    <circle id="Ellipse_30" data-name="Ellipse 30" class="cls-4" cx="7.959" cy="7.959" r="7.959" transform="translate(505.796 296.484)"/>
    <path id="Path_124" data-name="Path 124" class="cls-3" d="M679.244,502.2s-7.959-19.592,15.919-34.286Z" transform="translate(-155.692 -122.449)"/>
    <path id="Path_125" data-name="Path 125" class="cls-3" d="M659.749,505.051s-3.622-20.835-31.659-20.656Z" transform="translate(-145.986 -125.656)"/>
    <path id="Path_126" data-name="Path 126" class="cls-3" d="M294.155,472.395c-.141-.23-3.453-5.761-4.6-17.248-1.053-10.539-.376-28.3,8.836-53.081,17.453-46.942-4.022-84.818-4.242-85.195l1.06-.615c.056.1,5.6,9.752,8.871,25.129a109.631,109.631,0,0,1-4.54,61.107c-17.423,46.862-4.47,69.046-4.337,69.265Z" transform="translate(-80.036 -92.938)"/>
    <circle id="Ellipse_31" data-name="Ellipse 31" class="cls-3" cx="7.959" cy="7.959" r="7.959" transform="translate(199.335 205.258)"/>
    <circle id="Ellipse_32" data-name="Ellipse 32" class="cls-3" cx="7.959" cy="7.959" r="7.959" transform="translate(224.438 234.646)"/>
    <circle id="Ellipse_33" data-name="Ellipse 33" class="cls-4" cx="7.959" cy="7.959" r="7.959" transform="translate(207.295 254.238)"/>
    <circle id="Ellipse_34" data-name="Ellipse 34" class="cls-4" cx="7.959" cy="7.959" r="7.959" transform="translate(228.111 270.769)"/>
    <circle id="Ellipse_35" data-name="Ellipse 35" class="cls-3" cx="7.959" cy="7.959" r="7.959" transform="translate(201.172 296.484)"/>
    <path id="Path_127" data-name="Path 127" class="cls-3" d="M301.019,502.2s-7.959-19.592,15.919-34.286Z" transform="translate(-82.092 -122.449)"/>
    <path id="Path_128" data-name="Path 128" class="cls-3" d="M281.524,505.051S277.9,484.217,249.866,484.4Z" transform="translate(-72.385 -125.656)"/>
    <path id="Path_129" data-name="Path 129" class="cls-7" d="M470.964,187.774H384.949l.345-1.055c.06-.185,6.359-18.462,34.232-14.933,2.629-.9,28.287-9.275,43.643.136,6.815,4.176,10.271,8.058,10.271,11.538a5.116,5.116,0,0,1-2.282,4.2Zm-83.687-1.611h83.2a3.461,3.461,0,0,0,1.348-2.727c-.013-1.978-1.672-5.343-9.5-10.142-15.209-9.32-42.179-.022-42.45.073l-.181.064-.19-.025C396.715,170.454,389.068,182.461,387.277,186.164Z" transform="translate(-98.672 -63.989)"/>
    <path id="Path_130" data-name="Path 130" class="cls-7" d="M833.129,234.729H774.788l.344-1.055c.042-.127,4.351-12.609,23.268-10.24,2.073-.7,19.211-6.2,29.544.136,4.671,2.863,7.04,5.552,7.04,7.992a3.723,3.723,0,0,1-1.662,3.049Zm-55.985-1.611h55.491a2.057,2.057,0,0,0,.739-1.579c-.011-1.035-.84-3.268-6.271-6.6-10.123-6.2-28.171.01-28.352.074l-.18.063-.19-.024C783.9,223.18,778.62,230.342,777.144,233.119Z" transform="translate(-174.532 -74.314)"/>
    <path id="Path_131" data-name="Path 131" class="cls-7" d="M529.623,260.993H471.282l.345-1.055c.042-.127,4.345-12.61,23.268-10.24,2.074-.7,19.21-6.2,29.545.136,4.672,2.863,7.04,5.551,7.04,7.992a3.722,3.722,0,0,1-1.662,3.049Zm-55.985-1.611H529.13a2.06,2.06,0,0,0,.738-1.579c-.011-1.035-.84-3.268-6.271-6.6-10.124-6.2-28.171.01-28.352.074l-.181.063-.19-.024c-14.488-1.877-19.762,5.287-21.236,8.063Z" transform="translate(-115.472 -79.425)"/>
    <circle id="Ellipse_36" data-name="Ellipse 36" class="cls-8" cx="23.699" cy="23.699" r="23.699" transform="translate(130.282 105.671)"/>
    <path id="Path_132" data-name="Path 132" class="cls-7" d="M218.12,216.3a31.161,31.161,0,1,1,31.161-31.161A31.161,31.161,0,0,1,218.12,216.3Zm0-60.712a29.55,29.55,0,1,0,29.55,29.55,29.551,29.551,0,0,0-29.55-29.55Z" transform="translate(-60.144 -61.359)"/>
    <path id="Path_133" data-name="Path 133" class="cls-3" d="M117.252,110.574V462.536H759.965V110.574ZM729.36,431.931h-581.5V141.179h581.5Z" transform="translate(-46.579 -52.913)"/>
    <path id="Path_134" data-name="Path 134" class="cls-9" d="M273.564,439.325l14.755,30.605H149.9l2.7-321.357h218.99s-56.1,120.94-148.114,186.854Z" transform="translate(-52.933 -60.308)"/>
    <path id="Path_135" data-name="Path 135" class="cls-9" d="M703.377,439.325l-14.755,30.605H827.039l-2.7-321.357H605.352s56.1,120.94,148.114,186.854Z" transform="translate(-141.561 -60.308)"/>
    <rect id="Rectangle_124" data-name="Rectangle 124" class="cls-3" width="90.205" height="15.303" transform="translate(90.807 264.65)"/>
    <rect id="Rectangle_125" data-name="Rectangle 125" class="cls-3" width="90.205" height="15.303" transform="translate(603.851 264.65)"/>
    <path id="Path_136" data-name="Path 136" class="cls-10" d="M1006.469,389.574l-3.222,75.708L983.113,540.99s-20.941,37.049-4.833,37.049,20.941-34.632,20.941-34.632l25.773-70.876,4.832-65.238Z" transform="translate(-212.946 -107.205)"/>
    <path id="Path_137" data-name="Path 137" class="cls-10" d="M957.752,740.574l1.611,57.989H975.47l6.443-37.049s5.638-15.3,5.638-16.108S957.752,740.574,957.752,740.574Z" transform="translate(-210.136 -175.508)"/>
    <path id="Path_138" data-name="Path 138" class="cls-6" d="M971.881,808.574H951.746s-8.054,12.081-9.665,12.081-24.968.805-10.47,11.276,28.189,5.638,28.189,5.638v9.665s16.108,8.054,16.914,0q.012-.121.024-.242A57.49,57.49,0,0,0,973.2,821.4C971.289,816.278,969.707,810.313,971.881,808.574Z" transform="translate(-204.13 -188.74)"/>
    <path id="Path_139" data-name="Path 139" class="cls-10" d="M1022.246,734.1l18.526,54.974,15.4-4.718-4.691-37.311s.908-16.283.672-17.053S1022.246,734.1,1022.246,734.1Z" transform="translate(-222.686 -173.432)"/>
    <path id="Path_140" data-name="Path 140" class="cls-6" d="M1056.883,792.809l-19.252,5.9s-4.162,13.91-5.7,14.382-23.636,8.083-6.708,13.848,28.6-2.866,28.6-2.866l2.831,9.241s17.761,2.983,16.172-4.954c-.016-.079-.032-.159-.048-.238a57.487,57.487,0,0,0-10.873-23.435C1058.574,800.349,1055.314,795.109,1056.883,792.809Z" transform="translate(-222.029 -185.672)"/>
    <circle id="Ellipse_37" data-name="Ellipse 37" class="cls-10" cx="23.357" cy="23.357" r="23.357" transform="translate(741.575 215.923)"/>
    <path id="Path_141" data-name="Path 141" class="cls-10" d="M973.752,353.816s14.5,20.135,11.276,24.968,34.632-4.027,34.632-4.027-23.357-26.578-22.551-31.411S973.752,353.816,973.752,353.816Z" transform="translate(-213.25 -98.026)"/>
    <path id="Path_142" data-name="Path 142" class="cls-6" d="M990.613,372.791s-19.33,0-25.773,8.054-13.692,24.968-13.692,24.968-6.852,2.569-9.314,16.139A46.588,46.588,0,0,0,946,450.608c4.061,8.343,8.815,20.212,4.749,23.261-6.443,4.832-24.968,44.3-24.968,110.341,0,36.8-10.63,62.228-20.043,77.526-7.876,12.8,3.187,28.858,17.968,26.133q.43-.079.867-.164c28.995-5.638,113.562-16.108,113.562-16.108l-23.357-57.184s-11.276-18.524-4.027-47.519-12.886-82.151-12.886-82.151,26.981-60.808,22.149-74.5-10.873-41.478-16.511-40.673A90.224,90.224,0,0,0,990.613,372.791Z" transform="translate(-199.505 -103.309)"/>
    <path id="Path_143" data-name="Path 143" class="cls-10" d="M971.469,389.574l-3.222,75.708L948.113,540.99s-20.941,37.049-4.832,37.049,20.941-34.632,20.941-34.632l25.773-70.876,4.832-65.238Z" transform="translate(-206.135 -107.205)"/>
    <path id="Path_144" data-name="Path 144" class="cls-6" d="M992.188,379.574s-17.719,0-20.135,8.054-2.892,9.225-2.892,9.225,6.919-9.225,15.779,4.467,20.135,16.914,20.135,16.914S1007.491,386.017,992.188,379.574Z" transform="translate(-212.356 -105.259)"/>
    <circle id="Ellipse_38" data-name="Ellipse 38" class="cls-6" cx="32.216" cy="32.216" r="32.216" transform="translate(748.824 193.372)"/>
    <path id="Path_145" data-name="Path 145" class="cls-6" d="M987.074,342.495A32.213,32.213,0,0,1,964.665,304.5c-.226.628-.44,1.264-.63,1.914a32.216,32.216,0,0,0,61.857,18.034c.189-.65.35-1.3.5-1.952A32.213,32.213,0,0,1,987.074,342.495Z" transform="translate(-211.106 -90.65)"/>
    <ellipse id="Ellipse_39" data-name="Ellipse 39" class="cls-10" cx="2.416" cy="4.027" rx="2.416" ry="4.027" transform="translate(754.461 239.28)"/>
    <circle id="Ellipse_40" data-name="Ellipse 40" class="cls-6" cx="11.276" cy="11.276" r="11.276" transform="translate(781.845 182.096)"/>
    <path id="Path_146" data-name="Path 146" class="cls-6" d="M996.664,273.35a11.275,11.275,0,0,1,10.066-11.209,11.276,11.276,0,1,0,0,22.418A11.275,11.275,0,0,1,996.664,273.35Z" transform="translate(-217.234 -82.394)"/>
    <path id="Path_147" data-name="Path 147" class="cls-6" d="M962.749,303.074a14.5,14.5,0,0,0-14.5,14.5h28.995A14.5,14.5,0,0,0,962.749,303.074Z" transform="translate(-208.287 -90.373)"/>
    <rect id="Rectangle_126" data-name="Rectangle 126" class="cls-1" width="113" height="2" transform="translate(490.964 499.036)"/>
    <rect id="Rectangle_127" data-name="Rectangle 127" class="cls-1" width="1.611" height="14.9" transform="translate(521.899 484.854)"/>
    <rect id="Rectangle_128" data-name="Rectangle 128" class="cls-1" width="1.611" height="14.9" transform="translate(571.029 484.854)"/>
    <rect id="Rectangle_129" data-name="Rectangle 129" class="cls-1" width="113" height="2" transform="translate(408.964 461.036)"/>
    <rect id="Rectangle_130" data-name="Rectangle 130" class="cls-1" width="1.611" height="14.9" transform="translate(439.748 447)"/>
    <rect id="Rectangle_131" data-name="Rectangle 131" class="cls-1" width="1.611" height="14.9" transform="translate(488.878 447)"/>
    <rect id="Rectangle_132" data-name="Rectangle 132" class="cls-1" width="113" height="2" transform="translate(140.964 552.036)"/>
    <rect id="Rectangle_133" data-name="Rectangle 133" class="cls-1" width="1.611" height="14.9" transform="translate(171.548 538.011)"/>
    <rect id="Rectangle_134" data-name="Rectangle 134" class="cls-1" width="1.611" height="14.9" transform="translate(220.678 538.011)"/>
    <rect id="Rectangle_135" data-name="Rectangle 135" class="cls-1" width="113" height="2" transform="translate(277.964 514.036)"/>
    <rect id="Rectangle_136" data-name="Rectangle 136" class="cls-1" width="1.611" height="14.9" transform="translate(359.207 515.862)"/>
    <rect id="Rectangle_137" data-name="Rectangle 137" class="cls-1" width="1.611" height="14.9" transform="translate(310.078 515.862)"/>
    <rect id="Rectangle_138" data-name="Rectangle 138" class="cls-1" width="112" height="2" transform="translate(102.964 472.036)"/>
    <rect id="Rectangle_139" data-name="Rectangle 139" class="cls-1" width="1.611" height="14.9" transform="translate(182.824 473.176)"/>
    <rect id="Rectangle_140" data-name="Rectangle 140" class="cls-1" width="1.611" height="14.9" transform="translate(133.694 473.176)"/>
    <rect id="Rectangle_141" data-name="Rectangle 141" class="cls-1" width="113" height="1" transform="translate(323.964 575.036)"/>
    <rect id="Rectangle_142" data-name="Rectangle 142" class="cls-1" width="1.611" height="14.9" transform="translate(355.18 559.757)"/>
    <rect id="Rectangle_143" data-name="Rectangle 143" class="cls-1" width="1.611" height="14.9" transform="translate(404.31 559.757)"/>
  </g>
</svg>
